<?xml version="1.0" standalone="no"?><!DOCTYPE svg PUBLIC "-//W3C//DTD SVG 1.1//EN" "http://www.w3.org/Graphics/SVG/1.1/DTD/svg11.dtd"><svg t="1563764914939" class="icon" viewBox="0 0 1024 1024" version="1.1" xmlns="http://www.w3.org/2000/svg" p-id="1660" xmlns:xlink="http://www.w3.org/1999/xlink" width="128" height="128"><defs><style type="text/css"></style></defs><path d="M938.05598563 33.20057188H85.94401437c-29.06432906 0-52.74301969 23.68038375-52.74301968 52.74301875v851.7589125c0 29.06263594 23.67869062 52.74301969 52.74301969 52.74301968h458.88755249V619.81267531H419.97297688V475.22593625h124.85943656v-106.56130406c0-123.42179813 75.34559813-190.87224188 185.8447425-190.87224188 52.74301969 0 98.31224344 3.94630687 111.58287656 5.73954469v129.1638825h-76.42171031c-60.2715675 0-71.75489063 28.34466375-71.75489063 70.32148594v92.20863281h143.15418188l-18.65627157 144.58673906H694.08343156v370.63115344h243.97255406v0.35559937c29.06517562 0 52.74301969-23.67869062 52.74301969-52.74301875V85.94359063c0-29.06263594-23.6769975-52.74301969-52.74301968-52.74301876z" fill="#3B5792" p-id="1661"></path></svg>