<?xml version="1.0" standalone="no"?><!DOCTYPE svg PUBLIC "-//W3C//DTD SVG 1.1//EN" "http://www.w3.org/Graphics/SVG/1.1/DTD/svg11.dtd"><svg t="1563765007054" class="icon" viewBox="0 0 1024 1024" version="1.1" xmlns="http://www.w3.org/2000/svg" p-id="1985" xmlns:xlink="http://www.w3.org/1999/xlink" width="128" height="128"><defs><style type="text/css"></style></defs><path d="M512 0C372.941086 0 355.534222 0.682995 300.921649 3.071976c-54.545574 2.52598-91.613284 11.126913-124.245029 23.824814a250.741041 250.741041 0 0 0-90.794291 59.049539 249.854048 249.854048 0 0 0-58.981539 90.726291c-12.697901 32.631745-21.299834 69.699455-23.824814 124.244029C0.549996 355.530222 0.004 372.870087 0.004 511.996s0.682995 156.465778 3.071976 211.078351c2.52598 54.476574 11.126913 91.613284 23.824814 124.245029 13.038898 33.654737 30.583761 62.259514 59.049539 90.794291 28.467778 28.329779 57.002555 46.010641 90.726291 58.981539 32.631745 12.629901 69.768455 21.299834 124.244029 23.824814C355.534222 1023.446004 372.874087 1023.992 512 1023.992s156.465778-0.682995 211.078351-3.071976c54.476574-2.52598 91.613284-11.195913 124.245029-23.824814a251.628034 251.628034 0 0 0 90.794291-59.049538c28.329779-28.467778 46.010641-56.934555 58.981539-90.658292 12.629901-32.699745 21.299834-69.836454 23.824814-124.312029C1023.450004 668.461778 1023.996 651.121913 1023.996 511.996c0-139.058914-0.682995-156.465778-3.071976-211.078351-2.52598-54.476574-11.195913-91.682284-23.824814-124.245029a251.288037 251.288037 0 0 0-59.049539-90.794291 249.444051 249.444051 0 0 0-90.658291-58.981539c-32.699745-12.697901-69.836454-21.299834-124.312029-23.824814C668.465778 0.545996 651.125913 0 512 0z m0 92.15928c136.668932 0 152.915805 0.682995 206.914383 3.003977 49.90261 2.389981 77.004398 10.649917 95.026258 17.749861 23.961813 9.214928 40.95968 20.342841 58.982539 38.227701 17.88586 17.88586 28.944774 34.952727 38.229702 58.91454 6.961946 18.021859 15.35988 45.055648 17.611862 95.026258 2.457981 53.998578 3.003977 70.245451 3.003977 206.914383 0 136.736932-0.682995 152.915805-3.139976 206.914384-2.662979 49.90261-10.922915 77.004398-18.022859 95.026257-9.556925 23.961813-20.411841 40.95968-38.3657 58.982539a159.742752 159.742752 0 0 1-58.845541 38.229702c-17.88586 6.961946-45.464645 15.35988-95.367255 17.611862-54.339575 2.457981-70.314451 3.003977-207.32438 3.003977s-152.984805-0.682995-207.32438-3.139976c-49.90261-2.662979-77.482395-10.922915-95.367255-18.022859-24.30281-9.556925-40.95968-20.411841-58.84554-38.3657a155.441786 155.441786 0 0 1-38.365701-58.845541c-7.099945-17.88586-15.35988-45.464645-17.953859-95.367255-1.911985-53.72558-2.59398-70.314451-2.59398-206.641385 0-136.395934 0.681995-153.052804 2.59398-207.39338 2.59398-49.96961 10.921915-77.413395 17.953859-95.367255 8.873931-24.30281 20.411841-40.95968 38.365701-58.91354 17.88586-17.88586 34.54273-29.354771 58.84554-38.2977 17.88486-7.099945 44.84965-15.427879 94.75326-17.95386 54.407575-1.910985 70.38245-2.59398 207.32438-2.59398L512 92.15928z m0 156.943774a262.892946 262.892946 0 1 0 0 525.785892 262.892946 262.892946 0 0 0 0-525.785892z m0 433.558613a170.665667 170.665667 0 1 1-0.067999-341.262334A170.665667 170.665667 0 0 1 512 682.661667z m334.777385-443.934532a61.43952 61.43952 0 1 1-123.016039-0.069 61.43952 61.43952 0 0 1 123.016039 0z" fill="#D81E06" p-id="1986"></path></svg>