<?xml version="1.0" standalone="no"?><!DOCTYPE svg PUBLIC "-//W3C//DTD SVG 1.1//EN" "http://www.w3.org/Graphics/SVG/1.1/DTD/svg11.dtd"><svg t="1612163468560" class="icon" viewBox="0 0 1024 1024" version="1.1" xmlns="http://www.w3.org/2000/svg" p-id="3002" xmlns:xlink="http://www.w3.org/1999/xlink" width="48" height="48"><defs><style type="text/css"></style></defs><path d="M511.333 916s403-182 403-513c0-222.571-180.43-403-403-403s-403 180.429-403 403c0 331 403 513 403 513zM173.532 505.681c-10.085-33.548-15.199-68.095-15.199-102.681 0-47.677 9.327-93.901 27.72-137.388 17.776-42.029 43.236-79.785 75.671-112.221 32.435-32.435 70.191-57.895 112.221-75.671C417.432 59.327 463.656 50 511.333 50c47.676 0 93.901 9.327 137.387 27.72 42.029 17.776 79.787 43.236 112.221 75.671 32.436 32.435 57.895 70.191 75.672 112.22 18.395 43.487 27.721 89.711 27.721 137.388 0 34.37-5.051 68.704-15.01 102.047-9.164 30.681-22.717 61.328-40.281 91.088-30.353 51.43-73.083 101.23-127.003 148.017-68.125 59.11-137.32 98.57-170.746 116.04-33.015-17.216-100.944-55.914-168.81-114.433-54.399-46.908-97.53-96.869-128.194-148.495-17.769-29.918-31.483-60.731-40.758-91.582z" fill="#ffffff" p-id="3003"></path><path d="M512.667 364.5m-148 0a148 148 0 1 0 296 0 148 148 0 1 0-296 0Z" fill="#ffffff" p-id="3004"></path><path d="M838.487 872.35h-54.32c-13.807 0-25 11.193-25 25 0 13.808 11.193 25 25 25h54.32c14.251 0 25.846 11.585 25.846 25.825S852.738 974 838.487 974H184.179c-14.251 0-25.846-11.585-25.846-25.825s11.595-25.825 25.846-25.825h54.154c13.807 0 25-11.192 25-25 0-13.807-11.193-25-25-25h-54.154c-41.822 0-75.846 34.015-75.846 75.825S142.357 1024 184.179 1024h654.308c41.821 0 75.846-34.015 75.846-75.825s-34.024-75.825-75.846-75.825z" fill="#ffffff" p-id="3005"></path></svg>