<?xml version="1.0" standalone="no"?><!DOCTYPE svg PUBLIC "-//W3C//DTD SVG 1.1//EN" "http://www.w3.org/Graphics/SVG/1.1/DTD/svg11.dtd"><svg t="1612162384625" class="icon" viewBox="0 0 1024 1024" version="1.1" xmlns="http://www.w3.org/2000/svg" p-id="2162" xmlns:xlink="http://www.w3.org/1999/xlink" width="48" height="48"><defs><style type="text/css"></style></defs><path d="M511.914 928.016c-28.898 0-57.969-12.729-86.695-41.455L106.305 564.035c-38.187-47.648-74.31-92.716-74.31-180.099 0-141.224 114.905-255.957 255.957-255.957 53.152 0 104.069 16.169 147.244 46.616 14.449 10.149 17.889 30.102 7.741 44.552s-30.102 17.889-44.552 7.741c-32.339-22.878-70.526-34.919-110.433-34.919-105.961 0-191.968 86.179-191.968 191.968 0 61.409 20.298 90.135 59.173 138.643l315.646 318.742c15.997 15.997 28.898 22.362 41.283 22.534 12.729 0.172 24.942-6.193 41.455-22.706l316.678-319.946c25.974-28.21 57.969-75.858 57.969-137.439 0-105.961-86.179-191.968-191.968-191.968-47.992 0-94.092 17.889-129.527 50.228L472.694 376.196c-12.557 12.557-32.683 12.557-45.24 0s-12.557-32.683 0-45.24l135.031-135.203c48.336-44.208 109.745-67.946 173.734-67.946 141.224 0 255.957 114.905 255.957 255.957 0 82.395-41.111 144.32-75.686 181.647L598.78 886.389c-28.898 28.898-57.797 41.627-86.867 41.627z" p-id="2163" fill="#ffffff"></path></svg>