<?xml version="1.0" standalone="no"?><!DOCTYPE svg PUBLIC "-//W3C//DTD SVG 1.1//EN" "http://www.w3.org/Graphics/SVG/1.1/DTD/svg11.dtd"><svg t="1615795642640" class="icon" viewBox="0 0 1024 1024" version="1.1" xmlns="http://www.w3.org/2000/svg" p-id="6317" xmlns:xlink="http://www.w3.org/1999/xlink" width="200" height="200"><defs><style type="text/css"></style></defs><path d="M433.001412 476.792471c71.393882-28.687059 121.991529-98.499765 121.991529-180.028236 0-107.008-87.055059-194.063059-194.048-194.063059s-194.063059 87.070118-194.063059 194.063059c0 81.528471 50.612706 151.341176 122.006589 180.028236C129.686588 510.132706 9.758118 651.565176 9.758118 820.510118c0 41.321412 28.912941 54.964706 52.163764 65.942588l1.355294 0.572235c93.500235 33.008941 228.743529 41.818353 293.903059 41.818353 71.077647 0 210.176-11.52 302.592-43.444706 34.725647-13.327059 52.344471-35.162353 52.344471-64.873412 0.015059-168.96-119.928471-310.392471-279.115294-343.732705zM971.550118 110.426353H699.301647c-31.969882 0-41.728 33.927529-41.728 63.533176v57.675295c0 20.284235-11.881412 43.730824-16.444235 50.341647-3.343059 4.803765-28.024471 24.003765-46.667294 38.881882-4.502588 3.599059-7.695059 9.487059-6.204236 15.058823 1.475765 5.541647 5.466353 9.712941 11.158589 10.586353 16.097882 2.484706 34.575059 5.857882 45.101176 8.282353 0.165647 32.993882 31.322353 32.993882 43.113412 32.993883l281.344-0.090353c31.051294 0 50.010353-20.720941 50.010353-50.386824V173.974588c0-29.741176-15.902118-63.548235-47.435294-63.548235z m-118.211765 210.823529h-120.470588c-8.282353 0-15.058824-6.776471-15.058824-15.058823s6.776471-15.058824 15.058824-15.058824h120.470588c8.282353 0 15.058824 6.776471 15.058823 15.058824s-6.791529 15.058824-15.058823 15.058823z m60.235294-60.235294h-180.705882c-8.282353 0-15.058824-6.776471-15.058824-15.058823s6.776471-15.058824 15.058824-15.058824h180.705882c8.282353 0 15.058824 6.776471 15.058824 15.058824s-6.791529 15.058824-15.058824 15.058823z m45.176471-60.235294h-225.882353c-8.282353 0-15.058824-6.776471-15.058824-15.058823s6.776471-15.058824 15.058824-15.058824h225.882353c8.282353 0 15.058824 6.776471 15.058823 15.058824s-6.791529 15.058824-15.058823 15.058823z" p-id="6318" fill="#ffffff"></path></svg>