<?xml version="1.0" standalone="no"?><!DOCTYPE svg PUBLIC "-//W3C//DTD SVG 1.1//EN" "http://www.w3.org/Graphics/SVG/1.1/DTD/svg11.dtd"><svg t="1612162406511" class="icon" viewBox="0 0 1024 1024" version="1.1" xmlns="http://www.w3.org/2000/svg" p-id="2746" xmlns:xlink="http://www.w3.org/1999/xlink" width="48" height="48"><defs><style type="text/css"></style></defs><path d="M892.4 726.6c0 139.4-65 139.2-379.2 139.2s-379.1 0.2-379.1-139.2c0-152.3 169.8-456 379.4-456s378.9 303.6 378.9 456zM514.2 335.7c-89 0-161.3 71.4-161.3 159.3 0 88.1 72.3 159.3 161.3 159.3S675.3 582.9 675.3 495s-72.1-159.3-161.1-159.3zM176.4 453.1c66.2-104.6 180.3-216 335.8-216s277.3 120.7 332.2 215.1c28.5 47 83 41.8 107 0 15.2-31.3 63.1-294-439.2-294-508 0.5-455.5 271.4-437.7 293.9 31.6 47.4 91.1 23.2 101.9 1z" fill="#ffffff" p-id="2747"></path></svg>