<svg id="图层_1" data-name="图层 1" xmlns="http://www.w3.org/2000/svg" width="40" height="40" viewBox="0 0 40 40">
  <defs>
    <style>
      .cls-1 {
        fill: #fff;
        stroke: #fff;
        stroke-miterlimit: 10;
        stroke-width: 0.25px;
      }
    </style>
  </defs>
  <title>画板 1</title>
  <path class="cls-1" d="M37.88,20.48,21.63,4c-1-1-1.27-1-2.26,0L3.12,20.48,2,19.35,18.71,2.52a2.51,2.51,0,0,1,3.58,0L39,19.35ZM8,34.23a1.5,1.5,0,0,0,1.51,1.5h22A1.5,1.5,0,0,0,33,34.23V22.15h1.44V34.23a3,3,0,0,1-3,3H9.56a3,3,0,0,1-3-3V22.15H8Zm0,0"/>
</svg>
