<svg id="图层_1" data-name="图层 1" xmlns="http://www.w3.org/2000/svg" width="40" height="40" viewBox="0 0 40 40">
  <defs>
    <style>
      .cls-1 {
        fill: #fff;
      }
    </style>
  </defs>
  <title>画板 1</title>
  <path class="cls-1" d="M26.39,27c-.91-.89-2.69-2.36-4.38-2.36a2.55,2.55,0,0,0-1.51.47l-1.07.77a7.73,7.73,0,0,1-4.64-4,7.77,7.77,0,0,1-1.11-6l1.21-.54c1.55-.69,2.05-2.69,1.42-5.62C15.8,7.46,14.08,3,11.18,3a2.62,2.62,0,0,0-.83.13l-2,.66A5.17,5.17,0,0,0,4.85,7.64c-1.1,5.3.28,11.82,3.78,17.89s8.47,10.52,13.6,12.21a5.22,5.22,0,0,0,1.61.26,5.14,5.14,0,0,0,3.45-1.32l1.6-1.45c.57-.51,1.4-1.7.55-3.9A13.24,13.24,0,0,0,26.39,27Zm1.34,6.9-1.6,1.44a3.4,3.4,0,0,1-2.29.88,3.46,3.46,0,0,1-1.06-.17C18,34.53,13.43,30.36,10.14,24.66S5.54,12.88,6.55,8A3.41,3.41,0,0,1,8.84,5.45l2.05-.67a.92.92,0,0,1,.29,0c1.35,0,2.87,2.81,3.43,5.44.41,1.93.24,3.37-.43,3.67l-1.84.83,0,.1c-1,2.15-.65,5.24,1,8.06s4.12,4.7,6.5,4.89h.1l1.64-1.18a.77.77,0,0,1,.49-.15c1.62,0,4.87,3.11,5.81,5.55.25.64.43,1.51-.09,2Zm5.91-21.8a15.73,15.73,0,0,0-9.2-7.88,1.17,1.17,0,0,0-.27,0,.86.86,0,0,0-.82.6.88.88,0,0,0,.55,1.1,14.07,14.07,0,0,1,9,17.75.87.87,0,0,0,.55,1.1.84.84,0,0,0,.27,0,.87.87,0,0,0,.83-.6,15.73,15.73,0,0,0-.93-12.07ZM22.81,9.26a.76.76,0,0,0-.27,0,.86.86,0,0,0-.82.6.87.87,0,0,0,.55,1.1A8.85,8.85,0,0,1,27.93,22a.87.87,0,0,0,.55,1.1.84.84,0,0,0,.27,0,.87.87,0,0,0,.83-.6A10.58,10.58,0,0,0,22.81,9.26ZM20.64,15.9a3.57,3.57,0,0,1,2.29,4.51.89.89,0,0,0,.56,1.1.84.84,0,0,0,.27,0,.87.87,0,0,0,.83-.6,5.32,5.32,0,0,0-3.41-6.7.76.76,0,0,0-.27-.05.86.86,0,0,0-.82.6.87.87,0,0,0,.55,1.1Zm0,0"/>
</svg>
