<svg id="图层_1" data-name="图层 1" xmlns="http://www.w3.org/2000/svg" width="40" height="40" viewBox="0 0 40 40">
  <defs>
    <style>
      .cls-1 {
        fill: #fff;
      }
    </style>
  </defs>
  <title>画板 1</title>
  <g>
    <path class="cls-1" d="M19.71,22.59a10.2,10.2,0,0,1-10.3-10.3A10.2,10.2,0,0,1,19.71,2,10.19,10.19,0,0,1,30,12.29a10.2,10.2,0,0,1-10.29,10.3Zm0-2.06a8.24,8.24,0,1,0-8.24-8.24,8.26,8.26,0,0,0,8.24,8.24Zm0,0"/>
    <path class="cls-1" d="M3.24,37a16.47,16.47,0,0,1,32.94,0H34.12A14.42,14.42,0,0,0,5.29,37Zm0,0"/>
  </g>
</svg>
