<svg id="图层_1" data-name="图层 1" xmlns="http://www.w3.org/2000/svg" width="40" height="40" viewBox="0 0 40 40">
  <defs>
    <style>
      .cls-1 {
        fill: #fff;
        stroke: #fff;
        stroke-miterlimit: 10;
        stroke-width: 0.25px;
      }
    </style>
  </defs>
  <title>画板 1</title>
  <path class="cls-1" d="M33.43,35.51H7.59A5.54,5.54,0,0,1,2.06,30V10.27A3.62,3.62,0,0,1,3.24,6.81a3.27,3.27,0,0,1,1.67-.67.73.73,0,0,1,.66.27l13.19,16h0a.84.84,0,0,0,.51.29h0a1.07,1.07,0,0,0,.66-.42s0,0,0,0L30.89,11a.77.77,0,0,1,.72-.21.76.76,0,0,1,.54.53.74.74,0,0,1-.19.72L21.06,23.28a2.33,2.33,0,0,1-1.82.92,2.34,2.34,0,0,1-1.64-.84L4.7,7.7A1.8,1.8,0,0,0,4.17,8a2.11,2.11,0,0,0-.63,2.08.71.71,0,0,1,0,.14V30a4,4,0,0,0,4,4H33.43a4.05,4.05,0,0,0,4-4V10.2a4,4,0,0,0-4-4H17.7a.75.75,0,0,1,0-1.49H33.43A5.54,5.54,0,0,1,39,10.2V30a5.54,5.54,0,0,1-5.53,5.53Zm0,0"/>
</svg>
