<?xml version="1.0" standalone="no"?>
<!DOCTYPE svg PUBLIC "-//W3C//DTD SVG 1.1//EN" "http://www.w3.org/Graphics/SVG/1.1/DTD/svg11.dtd" >
<svg xmlns="http://www.w3.org/2000/svg" xmlns:xlink="http://www.w3.org/1999/xlink" version="1.1">
<metadata></metadata>
<defs>
<font id="playfair_displaybold" horiz-adv-x="0" >
<font-face units-per-em="2048" ascent="1638" descent="-410" />
<missing-glyph horiz-adv-x="477" />
<glyph unicode="&#xfb01;" horiz-adv-x="1333" d="M964.5 1583.5q75.5 -18.5 133.5 -55.5q37 -23 60.5 -59.5t23.5 -79.5q0 -74 -50.5 -116t-142.5 -42q-90 0 -141 42t-51 113q0 53 35.5 93.5t99.5 58.5q-20 12 -56 19.5t-77 7.5q-178 0 -262 -152q-31 -53 -43.5 -132t-12.5 -224h244q166 0 259 5t179 19v-891 q0 -84 32 -115.5t112 -31.5v-43q-221 8 -285 8q-63 0 -285 -8v43q74 0 102.5 31.5t28.5 115.5v646q0 94 -31.5 137t-111.5 43h-244v-826q0 -84 41 -115.5t123 -31.5v-43l-53 2q-203 6 -252 6q-66 0 -256 -6q-14 -2 -41 -2v43q80 0 111.5 31.5t31.5 115.5v826h-151v41h151 q0 252 162 407q72 66 182.5 102t239.5 36q119 0 194.5 -18.5z" />
<glyph unicode="&#xfb02;" horiz-adv-x="1339" d="M1163 190q0 -84 32 -115.5t112 -31.5v-43q-221 8 -285 8q-63 0 -285 -8v43q74 0 102.5 31.5t28.5 115.5v1194q0 94 -39 134q-20 23 -54 35t-70 12q-55 0 -93.5 -17.5t-66.5 -52.5q-41 -45 -52.5 -114.5t-11.5 -211.5v-112h215v-41h-215v-826q0 -84 41 -115.5t123 -31.5 v-43l-53 2q-203 6 -252 6q-66 0 -256 -6q-14 -2 -41 -2v43q80 0 111.5 31.5t31.5 115.5v826h-151v41h151q0 156 35 261t113 173q68 57 156 84t182 27q41 0 127 -9q98 -8 155 -8q96 0 209 21v-1416z" />
<glyph />
<glyph unicode="&#xd;" horiz-adv-x="477" />
<glyph />
<glyph />
<glyph unicode=" "  horiz-adv-x="477" />
<glyph unicode="&#x09;" horiz-adv-x="477" />
<glyph unicode="&#xa0;" horiz-adv-x="477" />
<glyph unicode="!" horiz-adv-x="589" d="M414 1547.5q49 -54.5 49 -146.5q0 -70 -13.5 -148.5t-46.5 -240.5q-41 -186 -63.5 -324.5t-26.5 -286.5h-37q-4 147 -26.5 285.5t-63.5 325.5q-33 162 -46 240.5t-13 148.5q0 92 47 146.5t121 54.5q70 0 119 -54.5zM422 245q47 -42 47 -116t-47 -116t-127 -42t-127 42 t-47 116t47 116t127 42t127 -42z" />
<glyph unicode="&#x22;" horiz-adv-x="755" d="M307 1458q37 -37 37 -98q0 -49 -11 -92t-38 -113q-39 -96 -66 -197h-28q-20 72 -62 183q-29 74 -41 119t-12 98q0 61 37 99t92 38t92 -37zM637 1458q37 -37 37 -98q0 -49 -11 -92t-38 -113q-39 -96 -66 -197h-28q-20 72 -62 183q-29 74 -41 119t-12 98q0 61 37 99t92 38 t92 -37z" />
<glyph unicode="#" horiz-adv-x="1269" d="M881 889l-66 -342h301l-8 -41h-301l-57 -299h-41l57 299h-342l-57 -299h-41l57 299h-301l8 41h301l66 342h-299l6 41h301l59 303h41l-59 -303h342l59 303h41l-59 -303h301l-6 -41h-303zM840 889h-342l-66 -342h342z" />
<glyph unicode="$" horiz-adv-x="1175" d="M997.5 107.5q-104.5 -99.5 -274.5 -125.5v-252h-41v245q-57 -4 -88 -4q-47 0 -70 2v-243h-41v250q-66 10 -107.5 25t-94.5 40q-61 31 -86 31q-18 0 -28.5 -21.5t-16.5 -68.5h-48q8 129 9 553h47q18 -246 94 -367t231 -147v602l-6 4q-119 76 -194.5 137t-122.5 144 t-47 190q0 160 104.5 254t265.5 114v250h41v-245q16 2 47 2q68 0 111 -9v252h41v-260q72 -16 147 -63q23 -12 40.5 -20.5t29.5 -8.5q18 0 28.5 21.5t16.5 68.5h47q-10 -137 -10 -467h-47q-23 170 -81 278.5t-171 145.5v-563q29 -16 33 -21q117 -74 188.5 -135t114.5 -141 t43 -184q0 -164 -104.5 -263.5zM524 1423v-434q51 -39 158 -110v546q-37 6 -78 7q-47 -1 -80 -9zM385 1130.5q27 -47.5 98 -108.5v391q-61 -23 -93 -68t-32 -106t27 -108.5zM682 25v460q-70 53 -158 113v-580q20 -2 62 -2q57 1 96 9zM862 227q0 61 -28.5 110.5t-110.5 115.5 v-418q139 45 139 192z" />
<glyph unicode="%" horiz-adv-x="1490" d="M1374 1661l-1198 -1774l-39 27l1198 1774zM642 1469.5q91 -89.5 91 -244.5q0 -102 -43 -180t-118.5 -121t-170.5 -43q-150 0 -241.5 89t-91.5 244q0 100 43 179.5t119.5 122.5t170.5 43q150 0 241 -89.5zM264 1217q0 -147 37 -223t105 -76q131 0 131 303q0 150 -36 225.5 t-104 75.5q-133 0 -133 -305zM1330 560q91 -89 91 -245q0 -102 -43 -180t-118.5 -121t-169.5 -43q-150 0 -242 89.5t-92 244.5q0 100 43 179t119.5 122t171.5 43q149 0 240 -89zM952 307q0 -147 37 -223t105 -76q131 0 131 303q0 150 -36 225.5t-104 75.5q-133 0 -133 -305z " />
<glyph unicode="&#x26;" horiz-adv-x="1839" d="M1700.5 953q-105.5 -85 -309.5 -128l-37 -12q92 -41 141 -131t49 -209q0 -143 -88 -257t-248.5 -179.5t-369.5 -65.5q-225 0 -396.5 61.5t-264.5 177.5t-93 271q0 139 73.5 234.5t167 144.5t175.5 70q-231 92 -232 258q0 125 121 195.5t287 70.5q76 0 125 -10t88 -33 q55 -27 90 -67.5t35 -98.5q0 -59 -46 -97t-112 -38t-107.5 33t-41.5 94q0 51 36.5 93t94.5 52q-18 16 -55.5 26.5t-80.5 10.5q-113 0 -184.5 -69.5t-71.5 -198.5q0 -119 80 -209q76 16 115 16q37 0 56.5 -15t19.5 -40q0 -20 -16.5 -31.5t-41.5 -11.5q-31 0 -59.5 14.5 t-71.5 38.5q-104 -53 -160.5 -132t-56.5 -199q0 -199 159 -298.5t439 -99.5q141 0 271.5 42t211.5 123t81 192q0 188 -156 260l-131 -37l-115 -33q-172 -39 -252 -82t-80 -117t69 -119.5t153 -45.5q23 0 48 6t33 14q-49 16 -75.5 51t-26.5 84q0 63 46 99t118 36 q74 0 116 -37.5t42 -101.5q0 -92 -82 -139t-209 -47q-131 0 -218 67.5t-87 194.5q0 154 116.5 244t341.5 133l88 22q133 31 218 60q158 39 233.5 85t75.5 117q0 80 -71 133.5t-161 53.5q-39 0 -59 -10q47 -18 73.5 -54.5t26.5 -74.5q0 -61 -46 -96.5t-118 -35.5t-115.5 36 t-43.5 100q0 80 69.5 126t186.5 46q147 0 236 -77t89 -212q0 -152 -105.5 -237z" />
<glyph unicode="'" horiz-adv-x="428" d="M307 1458q37 -37 37 -98q0 -49 -11 -92t-38 -113q-39 -96 -66 -197h-28q-20 72 -62 183q-29 74 -41 119t-12 98q0 61 37 99t92 38t92 -37z" />
<glyph unicode="(" horiz-adv-x="651" d="M201.5 1216.5q-130.5 -249.5 -130.5 -577.5t130.5 -577.5t381.5 -434.5l31 25q-137 217 -198.5 451.5t-61.5 535.5q0 299 62.5 536.5t197.5 450.5l-31 25q-251 -185 -381.5 -434.5z" />
<glyph unicode=")" horiz-adv-x="651" d="M449.5 1216.5q130.5 -249.5 130.5 -577.5t-130.5 -577.5t-381.5 -434.5l-31 25q137 217 198.5 451.5t61.5 535.5q0 299 -62.5 536.5t-197.5 450.5l31 25q251 -185 381.5 -434.5z" />
<glyph unicode="*" horiz-adv-x="985" d="M883 899q0 -27 -17 -53q-25 -51 -78 -51q-31 0 -65 20q-31 16 -58.5 45t-78.5 90q-68 78 -84 97q16 -49 37 -101q31 -86 43 -128t12 -79q0 -57 -29.5 -83.5t-70.5 -26.5t-70 26.5t-29 83.5q0 37 12.5 80t41.5 121l38 109q-35 -37 -84 -99q-37 -43 -72.5 -81t-64.5 -56 q-31 -18 -65 -18q-51 0 -82 49q-14 29 -15 51q0 53 62 90q31 18 70.5 27.5t119.5 23.5q92 14 125 23q-41 8 -125 22q-76 12 -118.5 23.5t-73.5 30.5q-59 37 -60 90q0 27 15 51q29 51 80 51q31 0 65 -20q33 -20 65.5 -54t82.5 -94q25 -31 73 -88l-41 117q-27 78 -39 119 t-12 75q0 57 30 84t71 27t69.5 -26.5t28.5 -84.5q0 -35 -11.5 -73.5t-37.5 -108.5q-8 -23 -19.5 -52.5t-23.5 -72.5l88 101q49 59 76.5 87.5t56.5 45.5q31 18 65 18q27 0 47.5 -14.5t32.5 -34.5q16 -27 17 -53q0 -55 -62 -88q-31 -18 -70.5 -27.5t-121.5 -24.5 q-96 -16 -121 -22q33 -8 121 -23q88 -16 125 -25t67 -28q62 -33 62 -88z" />
<glyph unicode="+" horiz-adv-x="1175" d="M625 758h475v-62h-475v-481h-74v481h-477v62h477v483h74v-483z" />
<glyph unicode="," horiz-adv-x="555" d="M414 215q20 -31 32.5 -76t12.5 -94q0 -106 -54.5 -192t-160.5 -136l-19 37q59 25 103.5 76t52.5 104q6 25 6 48q0 20 -6 38q-45 -49 -119 -49q-72 0 -117 42t-45 116q0 70 47.5 114t120.5 44q101 0 146 -72z" />
<glyph unicode="-" horiz-adv-x="985" d="M862 469h-739v170h739v-170z" />
<glyph unicode="." horiz-adv-x="552" d="M403.5 245q47.5 -42 47.5 -116t-47.5 -116t-127.5 -42t-127 42t-47 116t47.5 116t126.5 42q80 0 127.5 -42z" />
<glyph unicode="/" horiz-adv-x="753" d="M133 -29h-67l557 1508h67z" />
<glyph unicode="0" horiz-adv-x="1320" d="M960.5 1019.5q126.5 -67.5 197.5 -190t71 -282.5q0 -164 -73 -295t-205 -206t-302 -75q-160 0 -286.5 67.5t-198.5 190.5t-72 285t73 293t204 205.5t303 74.5q162 0 288.5 -67.5zM522.5 987.5q-57.5 -63.5 -89.5 -183.5t-32 -284q0 -260 75 -386t192 -126q74 0 130 64.5 t89 184.5t33 284q0 260 -75 385t-192 125q-73 0 -130.5 -63.5z" />
<glyph unicode="1" horiz-adv-x="784" d="M578 199q0 -88 32.5 -122t114.5 -34v-43q-221 8 -283 8q-68 0 -295 -6l-57 -2v43q96 0 144.5 37t48.5 131v500q0 98 -17.5 144t-58.5 61.5t-125 15.5v45q178 4 292.5 27.5t203.5 76.5v-882z" />
<glyph unicode="2" horiz-adv-x="1071" d="M813 1018.5q92 -68.5 92 -191.5q0 -84 -48 -155.5t-113.5 -127t-180.5 -136.5q-147 -102 -207 -164h443q55 0 82.5 8t38 26.5t16.5 57.5h43q0 -242 8 -346q-45 10 -305 10h-596v39q27 29 104 98q119 109 198 194t137.5 196.5t58.5 232.5q0 109 -48.5 159t-142.5 50 q-86 0 -152.5 -40t-121.5 -118l-35 20q152 256 479 256q158 0 250 -68.5z" />
<glyph unicode="3" horiz-adv-x="999" d="M755.5 1024q98.5 -63 98.5 -172q0 -117 -112.5 -209t-303.5 -129q215 8 352.5 -75t137.5 -236q0 -150 -129 -267.5t-331 -181t-409 -63.5v41q135 4 265.5 60t214.5 160.5t84 248.5q0 121 -58.5 198.5t-156.5 85.5q-29 -14 -56.5 -23t-48.5 -9q-39 0 -39 28q0 23 18.5 34 t47.5 11q12 0 33.5 -3t37.5 -5q158 111 158 275q0 92 -47 136t-135 44q-82 0 -150.5 -41t-115.5 -119l-37 18q63 117 164.5 186.5t265.5 69.5q153 0 251.5 -63z" />
<glyph unicode="4" horiz-adv-x="1081" d="M813 74v-363h-238v363h-559v43l764 970h33v-802h16q55 0 83 8t38.5 26.5t16.5 57.5h43q0 -217 8 -314q-25 7 -205 11zM575 285v477l-370 -477h370z" />
<glyph unicode="5" horiz-adv-x="940" d="M797 793q-43 10 -285 10h-315l-33 -350q119 82 309 82q197 0 298 -90.5t101 -233.5q0 -152 -118.5 -269.5t-306 -181t-386.5 -63.5v37q129 2 246 56t188.5 159.5t71.5 249.5q0 129 -60.5 197.5t-174.5 68.5q-55 0 -98.5 -14.5t-86.5 -44.5l-28 18l65 641q41 -8 111 -8 h338q59 0 82.5 17.5t29.5 62.5h43q1 -240 9 -344z" />
<glyph unicode="6" horiz-adv-x="1148" d="M888 848q91 -53 145 -154.5t54 -234.5q0 -152 -68.5 -262.5t-185 -168t-255.5 -57.5q-225 0 -353.5 154t-128.5 430q0 285 128 483.5t315.5 305t373.5 137.5l9 -41q-131 -41 -230.5 -106.5t-174.5 -203t-99 -364.5q43 70 113.5 102.5t154.5 32.5q111 0 202 -53z M727 117.5q51 105.5 51 322.5q0 209 -48 305.5t-126 96.5q-53 0 -108.5 -39t-85.5 -117q-4 -90 -4 -143q0 -281 56 -406t136 -125q78 0 129 105.5z" />
<glyph unicode="7" horiz-adv-x="931" d="M930 1014q-25 -57 -101 -197q-82 -147 -133 -257.5t-89 -252t-38 -295.5l4 -69q6 -53 7 -97q0 -63 -39 -106t-111 -43q-74 0 -111.5 49t-37.5 131q0 127 55 259t132 246t200 275q25 35 53.5 72t58.5 80h-544q-55 0 -83 -8t-38.5 -26.5t-16.5 -57.5h-43q0 246 -8 350 q45 -10 305 -10h578v-43z" />
<glyph unicode="8" horiz-adv-x="1148" d="M902.5 689.5q64.5 -62.5 113.5 -147.5t49 -184q0 -113 -64.5 -200.5t-179 -137t-258.5 -49.5q-129 0 -237.5 40t-173 120t-64.5 191q0 133 90 231t244 166q-127 109 -196.5 206t-69.5 220q0 106 59 182t157.5 114t217.5 38q176 0 288.5 -79t112.5 -208q0 -100 -70.5 -179 t-209.5 -153q127 -108 191.5 -170.5zM466 1396q-40 -46 -40 -124q0 -102 64.5 -190.5t187.5 -194.5q39 55 57.5 134t18.5 155q0 125 -48.5 195.5t-132.5 70.5q-67 0 -107 -46zM725 68.5q55 60.5 55 160.5q0 92 -45 170t-106.5 137.5t-175.5 155.5q-111 -117 -111 -334 q0 -156 54.5 -253t176.5 -97q97 0 152 60.5z" />
<glyph unicode="9" horiz-adv-x="1132" d="M923 939q128 -148 128 -417q0 -256 -127 -435t-311.5 -275.5t-366.5 -122.5l-8 41q123 37 216 92t165.5 166.5t103.5 294.5q-43 -63 -112.5 -94t-149.5 -31q-111 0 -202 54t-145.5 154.5t-54.5 235.5q0 152 69 261.5t185.5 166.5t255.5 57q226 0 354 -148zM648 253 q54 36 85 112q8 68 8 167q0 272 -57 393.5t-137 121.5q-76 0 -127 -105.5t-51 -323.5q0 -207 48 -304t126 -97q51 0 105 36z" />
<glyph unicode=":" horiz-adv-x="593" d="M423.5 1046q47.5 -42 47.5 -116t-47.5 -116t-127.5 -42t-127 42t-47 116t47.5 116t126.5 42q80 0 127.5 -42zM423.5 245q47.5 -42 47.5 -116t-47.5 -116t-127.5 -42t-127 42t-47 116t47.5 116t126.5 42q80 0 127.5 -42z" />
<glyph unicode=";" horiz-adv-x="606" d="M439 215q20 -31 32.5 -76t12.5 -94q0 -106 -54.5 -192t-160.5 -136l-19 37q59 25 103.5 76t52.5 104q6 25 6 48q0 20 -6 38q-45 -49 -119 -49q-72 0 -117 42t-45 116q0 70 47.5 114t120.5 44q101 0 146 -72zM432.5 1046q47.5 -42 47.5 -116t-47.5 -116t-127.5 -42 t-127 42t-47 116t47.5 116t126.5 42q80 0 127.5 -42z" />
<glyph unicode="&#x3c;" horiz-adv-x="1232" d="M1090 1118l-838 -391l838 -391l-35 -74l-998 465l998 465z" />
<glyph unicode="=" horiz-adv-x="1300" d="M1163 840h-1026v61h1026v-61zM1163 553h-1026v61h1026v-61z" />
<glyph unicode="&#x3e;" horiz-adv-x="1232" d="M143 1118l838 -391l-838 -391l35 -74l998 465l-998 465z" />
<glyph unicode="?" horiz-adv-x="1040" d="M842 1502.5q135 -99.5 135 -269.5q0 -168 -140.5 -285t-381.5 -170v-299h-41v318q160 70 215 165t55 232q0 186 -67.5 276.5t-184.5 90.5q-57 0 -105 -13.5t-73 -40.5q115 -35 115 -149q0 -63 -45 -105.5t-117 -42.5q-63 0 -104.5 41t-41.5 101q0 59 31 101t86 77 q121 72 307 72q222 0 357 -99.5zM563 245q47 -42 47 -116t-47 -116t-127 -42t-127 42t-47 116t47 116t127 42t127 -42z" />
<glyph unicode="@" horiz-adv-x="1810" d="M977 195q0 33 12 90q-55 -123 -126.5 -177.5t-164.5 -54.5q-111 0 -174 67.5t-63 198.5q0 145 69.5 300t183 257.5t236.5 102.5q63 0 104.5 -34t55.5 -89l18 94q162 0 258 29l-161 -739q-12 -57 -13 -76q0 -45 35 -45q16 0 27 4q92 27 192.5 117t169 236.5t68.5 330.5 q0 268 -170 396t-438 128q-250 0 -472.5 -142t-356.5 -381t-134 -511q0 -301 170 -445.5t457 -144.5q238 0 422 111l14 -27q-80 -55 -192.5 -88t-245.5 -33q-307 0 -486.5 155t-179.5 468q0 274 134 522t364.5 400.5t503.5 152.5q291 0 471 -139t180 -424q0 -219 -93 -390 t-234.5 -266.5t-278.5 -95.5q-162 1 -162 142zM925.5 229.5q55.5 77.5 100.5 225.5l68 323q-2 53 -24.5 91t-68.5 38q-66 0 -130 -87t-106 -223t-42 -275q0 -92 21.5 -131t62.5 -39q63 0 118.5 77.5z" />
<glyph unicode="A" horiz-adv-x="1366" d="M1313 73.5q35 -30.5 67 -32.5v-41q-123 6 -311 6q-209 0 -311 -6v41q78 4 110.5 19.5t32.5 54.5q0 37 -24 98l-123 336h-447l-53 -141q-57 -147 -57 -228q0 -76 46 -105.5t136 -33.5v-41q-139 6 -254 6q-94 0 -156 -6v41q100 18 176 215l467 1198q23 -2 72 -2t70 2 l497 -1282q27 -68 62 -98.5zM739 590l-202 553l-213 -553h415z" />
<glyph unicode="B" horiz-adv-x="1376" d="M1190 639q125 -102 125 -242q0 -190 -149.5 -293.5t-415.5 -103.5q-59 0 -101 2q-135 4 -264 4q-211 0 -315 -6v41q68 4 99.5 16.5t42.5 47t11 112.5v1016q0 78 -11 112.5t-43 47t-99 16.5v41q104 -6 311 -6l227 2q41 2 94 2q246 0 376 -88t130 -234q0 -119 -103.5 -221 t-305.5 -139v-4q266 -21 391 -123zM595 1394.5q-26 -14.5 -36 -51t-10 -110.5v-463h88q133 0 186.5 91t53.5 243q0 154 -48.5 229.5t-152.5 75.5q-55 0 -81 -14.5zM975 406q0 162 -82 245.5t-258 83.5h-86v-518q0 -74 10 -108.5t40 -48t91 -13.5q285 1 285 359z" />
<glyph unicode="C" horiz-adv-x="1443" d="M1022 1444q86 -35 168 -98q23 -18 39 -19q41 0 53 123h47q-8 -139 -8 -496h-47q-18 152 -49 232t-105 139q-51 49 -118.5 74.5t-141.5 25.5q-207 0 -307 -201.5t-100 -502.5q0 -299 104.5 -500t310.5 -201q70 0 138.5 26t115.5 75q76 57 105.5 143t46.5 252h47 q0 -371 8 -516h-47q-6 66 -17.5 93.5t-31.5 27.5q-16 0 -43 -17q-92 -66 -176 -99.5t-203 -33.5q-217 0 -380 88t-253 255t-90 399q0 225 92 399t257 270.5t376 96.5q123 0 209 -35z" />
<glyph unicode="D" horiz-adv-x="1589" d="M1300.5 1268.5q198.5 -181.5 198.5 -527.5q0 -223 -97 -390t-280.5 -259t-437.5 -92l-127 2q-119 4 -172 4q-211 0 -315 -6v41q68 4 99.5 16.5t42.5 47t11 112.5v1016q0 78 -11 112.5t-43 47t-99 16.5v41q86 -6 247 -6h64l82 2q168 4 239 4q400 0 598.5 -181.5z M605 1398.5q-32 -14.5 -44 -51t-12 -110.5v-1024q0 -74 12 -110.5t44 -51t97 -14.5q248 0 352.5 173t104.5 523t-107.5 515t-351.5 165q-63 0 -95 -14.5z" />
<glyph unicode="E" horiz-adv-x="1298" d="M1206 0q-139 6 -469 6q-446 0 -667 -6v41q68 4 99.5 16.5t42.5 47t11 112.5v1016q0 78 -11 112.5t-43 47t-99 16.5v41q221 -6 667 -6q301 0 428 6q-14 -170 -14 -303q0 -90 6 -139h-47q-31 219 -110.5 307t-225.5 88h-84q-63 0 -92 -10.5t-39 -40t-10 -95.5v-507h65 q109 0 165.5 79.5t78.5 190.5h47q-6 -86 -6 -193v-98q0 -104 12 -291h-47q-43 270 -250 271h-65v-516q0 -66 10 -95.5t39 -40t92 -10.5h101q145 0 234 99.5t126 336.5h47q-6 -68 -6 -172q0 -188 14 -311z" />
<glyph unicode="F" horiz-adv-x="1212" d="M1151 1139q0 -96 6 -156h-47q-41 231 -123 325.5t-229 94.5h-68q-63 0 -92 -10.5t-39 -40t-10 -95.5v-516h72q109 0 165 80t78 191h47q-6 -86 -6 -193v-98q0 -104 13 -291h-48q-43 270 -249 270h-72v-471q0 -82 17.5 -119.5t61.5 -50t140 -14.5v-45q-252 6 -375 6 q-102 0 -258 -4l-65 -2v41q68 4 99.5 16.5t42.5 47t11 112.5v1016q0 78 -11 112.5t-43 47t-99 16.5v41q221 -6 667 -6q301 0 428 6q-14 -174 -14 -311z" />
<glyph unicode="G" horiz-adv-x="1505" d="M1043 1444q87 -35 171 -98q25 -18 41 -19q20 0 32.5 29.5t19.5 93.5h47q-8 -139 -8 -496h-48q-16 139 -47.5 225.5t-105.5 145.5q-49 47 -121 73.5t-147 26.5q-143 0 -238.5 -97t-140.5 -257t-45 -350q0 -709 393 -709q90 0 145 41q27 18 38 43t11 64v200q0 96 -16 140.5 t-58 61t-132 20.5v41q127 -6 350 -7q182 0 274 7v-41q-41 -4 -59.5 -16.5t-25.5 -47.5t-7 -112v-406h-41q-2 43 -17.5 80t-41.5 37q-35 0 -111 -43q-178 -102 -336 -103q-354 0 -542.5 193.5t-188.5 544.5q0 229 95.5 403t263 270.5t382.5 96.5q127 0 214 -35z" />
<glyph unicode="H" horiz-adv-x="1638" d="M1470.5 1392.5q-30.5 -12.5 -42 -47t-11.5 -112.5v-1016q0 -78 11.5 -112.5t42 -47t100.5 -16.5v-41q-100 6 -311 6q-207 0 -322 -6v41q68 4 99.5 16.5t43 47t11.5 112.5v492h-543v-492q0 -78 11 -112.5t42 -47t100 -16.5v-41q-111 6 -309 6q-219 0 -323 -6v41 q68 4 99.5 16.5t42.5 47t11 112.5v1016q0 78 -11 112.5t-43 47t-99 16.5v41q104 -6 323 -6q199 0 309 6v-41q-70 -4 -100.5 -16.5t-41.5 -47t-11 -112.5v-483h543v483q0 78 -11.5 112.5t-43 47t-99.5 16.5v41q115 -6 322 -6q211 0 311 6v-41q-70 -4 -100.5 -16.5z" />
<glyph unicode="I" horiz-adv-x="770" d="M702 1409q-70 -4 -100.5 -16.5t-41.5 -47t-11 -112.5v-1016q0 -78 11 -112.5t42 -47t100 -16.5v-41q-111 6 -309 6q-219 0 -323 -6v41q68 4 99.5 16.5t42.5 47t11 112.5v1016q0 78 -11 112.5t-43 47t-99 16.5v41q104 -6 323 -6q199 0 309 6v-41z" />
<glyph unicode="J" horiz-adv-x="745" d="M-47 -344q86 8 142.5 50t86 139.5t29.5 265.5v1122q0 78 -11.5 112.5t-43 47t-99.5 16.5v41q102 -6 310 -6q211 0 323 6v-41q-70 -4 -100.5 -16.5t-41.5 -47t-11 -112.5v-750v-125q0 -289 -35 -409q-43 -150 -183.5 -242t-365.5 -92v41z" />
<glyph unicode="K" horiz-adv-x="1462" d="M1399 90q33 -29 84 -49v-41q-143 6 -320 6q-135 0 -260 -6v41q57 4 83 12t26 29q0 16 -23 51l-297 481q-41 66 -68.5 88.5t-74.5 26.5v-512q0 -78 11 -112.5t42 -47t100 -16.5v-41q-111 6 -309 6q-219 0 -323 -6v41q68 4 99.5 16.5t42.5 47t11 112.5v1016q0 78 -11 112.5 t-43 47t-99 16.5v41q104 -6 323 -6q199 0 309 6v-41q-70 -4 -100.5 -16.5t-41.5 -47t-11 -112.5v-461q82 4 149.5 49t153.5 144l121 145q94 109 94 190q0 49 -40 78t-112 33v39q150 -6 304 -6q119 0 192 6v-39q-164 -39 -297 -197l-256 -305l477 -743q31 -47 64 -76z" />
<glyph unicode="L" horiz-adv-x="1251" d="M715 1409q-74 -4 -108 -16.5t-46 -47t-12 -112.5v-1040q0 -66 10 -95.5t36 -40t83 -10.5h100q139 0 240.5 125t132.5 332h47q-6 -70 -6 -180q0 -197 14 -324q-139 6 -469 6q-446 0 -667 -6v41q68 4 99.5 16.5t42.5 47t11 112.5v1016q0 78 -11 112.5t-43 47t-99 16.5v41 q104 -6 323 -6q209 0 322 6v-41z" />
<glyph unicode="M" horiz-adv-x="1898" d="M1730.5 1392.5q-30.5 -12.5 -42 -47t-11.5 -112.5v-1016q0 -78 11.5 -112.5t43 -47t99.5 -16.5v-41q-113 6 -322 6q-219 0 -323 -6v41q74 4 107.5 16.5t46 47t12.5 112.5v1071l-494 -1290h-33l-553 1319v-981q0 -121 12.5 -177.5t53.5 -82t133 -35.5v-41q-80 6 -221 6 q-113 0 -178 -6v41q68 10 99.5 34.5t42.5 78t11 157.5v922q0 78 -11 112.5t-43 47t-99 16.5v41q66 -6 178 -6q188 0 323 6l414 -997l377 991h145q209 0 322 6v-41q-70 -4 -100.5 -16.5z" />
<glyph unicode="N" horiz-adv-x="1478" d="M1419 1409q-68 -10 -99.5 -34.5t-42.5 -78t-11 -157.5v-1143l-49 2l-56 -2l-889 1126v-786q0 -121 12.5 -177.5t53.5 -82t133 -35.5v-41q-80 6 -221 6q-113 0 -178 -6v41q68 10 99.5 34.5t42.5 78t11 157.5v922q0 78 -11 112.5t-43 47t-99 16.5v41q66 -6 178 -6 q102 0 176 6l793 -977v641q0 121 -12.5 177.5t-53.5 82t-133 35.5v41q80 -6 221 -6q115 0 178 6v-41z" />
<glyph unicode="O" horiz-adv-x="1624" d="M1193 1391q163 -88 253 -255t90 -399q0 -225 -92 -399t-257 -270.5t-376 -96.5q-217 0 -380 88t-253 255t-90 399q0 225 92 399t257 270.5t376 96.5q217 0 380 -88zM606 1351q-86 -91 -132 -255t-46 -375q0 -213 52 -375t141.5 -250t197.5 -88q113 0 199 91t132 255 t46 375q0 213 -52 375t-141.5 250t-197.5 88q-113 0 -199 -91z" />
<glyph unicode="P" horiz-adv-x="1312" d="M549 586v-357q0 -82 17.5 -119.5t61.5 -50t140 -14.5v-45q-252 6 -375 6q-102 0 -258 -4l-65 -2v41q68 4 99.5 16.5t42.5 47t11 112.5v1016q0 78 -11 112.5t-43 47t-99 16.5v41q104 -6 311 -6l227 2q41 2 94 2q276 0 422 -109.5t146 -294.5q0 -113 -57.5 -216 t-193.5 -172.5t-362 -69.5h-108zM595 1394.5q-26 -14.5 -36 -51t-10 -110.5v-606h88q166 0 229.5 106.5t63.5 288.5q0 199 -58.5 293t-195.5 94q-55 0 -81 -14.5z" />
<glyph unicode="Q" horiz-adv-x="1624" d="M1602 14q-35 -231 -142 -319q-45 -37 -113.5 -58.5t-150.5 -21.5q-111 0 -218.5 35t-264.5 104q-39 16 -85 36t-104 42l-49 14q-39 -20 -85 -31.5t-87 -11.5q-43 0 -69.5 13.5t-26.5 40.5q0 55 112 55q76 0 156 -29q70 20 148 56q14 6 42.5 17t51.5 19 q-190 18 -332.5 111.5t-219.5 253.5t-77 373q0 225 92 399t257 270.5t376 96.5q217 0 380 -88t253 -255t90 -399q0 -217 -86 -388t-241.5 -269t-354.5 -107q-49 -6 -88 -18t-92 -35q-66 -29 -127 -47l166 -14q260 -23 374 -23q76 0 154 10q127 14 201 54.5t123 124.5z M480 346q52 -162 141.5 -250t197.5 -88q113 0 199 91t132 255t46 375q0 213 -52 375t-141.5 250t-197.5 88q-113 0 -199 -91t-132 -255t-46 -375q0 -213 52 -375z" />
<glyph unicode="R" horiz-adv-x="1417" d="M1458 90q-55 -63 -118.5 -91t-153.5 -28q-119 0 -187.5 50.5t-89.5 171.5l-37 204q-27 150 -64.5 220.5t-125.5 70.5h-133v-471q0 -78 11 -112.5t42 -47t100 -16.5v-41q-111 6 -309 6q-219 0 -323 -6v41q68 4 99.5 16.5t42.5 47t11 112.5v1016q0 78 -11 112.5t-43 47 t-99 16.5v41q104 -6 311 -6l227 2q41 2 94 2q283 0 425.5 -92t142.5 -264q0 -145 -106.5 -256t-352.5 -140q184 -16 274.5 -79.5t116.5 -190.5l47 -211q16 -82 38 -114.5t61 -32.5q25 2 42 12t40 35zM595 1394.5q-26 -14.5 -36 -51t-10 -110.5v-504h88q168 0 230.5 89 t62.5 251q0 168 -59.5 254t-194.5 86q-55 0 -81 -14.5z" />
<glyph unicode="S" horiz-adv-x="1196" d="M751.5 1456.5q63.5 -20.5 129.5 -59.5q23 -12 40 -20.5t29 -8.5q18 0 28.5 21.5t16.5 68.5h47q-10 -137 -10 -467h-47q-8 111 -50 211.5t-119 162.5t-179 62q-100 0 -162.5 -56t-62.5 -152q0 -72 30.5 -125.5t86 -97.5t169.5 -119l66 -46q121 -80 190.5 -139t113.5 -138 t44 -183q0 -131 -67.5 -220.5t-183.5 -134.5t-257 -45q-115 0 -190.5 20.5t-139.5 55.5q-45 29 -69 29q-18 0 -28.5 -21.5t-16.5 -68.5h-47q8 129 8 553h47q14 -229 102 -371.5t271 -142.5q111 0 182.5 59t71.5 170q0 115 -74 196.5t-234 184.5q-123 80 -196.5 139.5 t-120.5 140t-47 187.5q0 123 62.5 208t167 126t229.5 41q106 0 169.5 -20.5z" />
<glyph unicode="T" horiz-adv-x="1368" d="M1300 1102q0 -96 7 -156h-47q-49 252 -134.5 354.5t-232.5 102.5h-47v-1170q0 -86 17.5 -124.5t61.5 -52t140 -15.5v-41q-258 6 -389 6q-129 0 -375 -6v41q96 2 140 15.5t61.5 52t17.5 124.5v1170h-45q-98 0 -166.5 -43t-118 -142.5t-84.5 -271.5h-47q6 59 7 156 q0 154 -15 348q186 -6 633 -6q446 0 631 6q-15 -194 -15 -348z" />
<glyph unicode="U" horiz-adv-x="1411" d="M1374 1409q-68 -10 -99.5 -34.5t-42.5 -78t-11 -157.5v-543q0 -293 -84 -434q-55 -90 -160 -140.5t-256 -50.5q-238 0 -369 103q-94 76 -126.5 191.5t-32.5 324.5v643q0 78 -11.5 112.5t-43.5 47t-99 16.5v41q104 -6 319 -6q213 0 326 6v-41q-74 -4 -107.5 -16.5t-46 -47 t-12.5 -112.5v-772q0 -215 62.5 -316.5t220.5 -101.5q205 0 289 138t84 392v541q0 119 -14.5 176.5t-55.5 83t-129 35.5v41q78 -6 221 -6q115 0 178 6v-41z" />
<glyph unicode="V" horiz-adv-x="1368" d="M1389 1450v-41q-51 -18 -100.5 -77.5t-88.5 -166.5l-432 -1169q-23 2 -72 2q-47 0 -69 -2l-523 1282q-27 68 -61.5 98.5t-67.5 32.5v41q123 -6 312 -6q211 0 311 6v-41q-78 -4 -110.5 -18.5t-32.5 -57.5q0 -35 24 -96l361 -918l252 680q57 158 57 250q0 82 -44 119 t-128 41v41q139 -6 256 -6q95 0 156 6z" />
<glyph unicode="W" horiz-adv-x="1982" d="M1995 1450v-41q-51 -20 -99.5 -78.5t-80.5 -165.5l-361 -1169q-23 2 -72 2t-71 -2l-301 913l-303 -913q-23 2 -72 2t-72 -2l-459 1282q-25 68 -59.5 98.5t-69.5 32.5v41q123 -6 306 -6q172 0 251 6v-41q-72 -10 -71 -80q0 -33 18 -92l299 -866l207 610l-104 317 q-20 59 -48 83t-65 28v41q115 -6 293 -6q201 0 295 6v-41q-74 -2 -106.5 -17.5t-32.5 -58.5q0 -37 20 -96l281 -856l194 618q47 154 47 238q0 88 -44 128t-132 44v41q139 -6 254 -6q97 0 158 6z" />
<glyph unicode="X" horiz-adv-x="1415" d="M1374.5 65.5q24.5 -20.5 65.5 -22.5v-43q-213 8 -281 8q-66 0 -287 -6q-16 -2 -43 -2v43q74 0 105 7t31 28q0 14 -15 35l-344 505l-164 -223q-94 -127 -94 -215q0 -63 46 -99t128 -40v-41q-117 6 -323 6q-123 0 -189 -6v41q141 45 297 250l273 366l-443 650 q-41 61 -65.5 80.5t-65.5 21.5v43q25 0 41 -2q197 -6 252 -6q178 0 313 8v-43q-70 0 -100.5 -9t-30.5 -30q0 -16 17 -39l305 -446l151 205q96 127 97 206q0 51 -39 80t-111 33v41q117 -6 258 -6q123 0 189 6v-41q-66 -18 -132.5 -75.5t-125.5 -139.5l-261 -348l480 -701 q41 -59 65.5 -79.5z" />
<glyph unicode="Y" horiz-adv-x="1275" d="M1264 1452v-41q-94 -39 -197 -237l-242 -480v-477q0 -78 11.5 -112.5t42 -47t100.5 -16.5v-41q-111 6 -315 6q-219 0 -318 -6v41q68 4 99.5 16.5t43 47t11.5 112.5v346l-396 731q-63 115 -118 115v43q90 -10 241 -10q190 0 385 10v-43q-72 0 -113.5 -13.5t-41.5 -47.5 q0 -18 14 -45l311 -601l160 320q80 162 80 254q0 70 -44 100.5t-126 34.5v41q139 -6 256 -6q95 0 156 6z" />
<glyph unicode="Z" horiz-adv-x="1232" d="M1141 1409l-701 -1362h213q160 0 284 106.5t148 338.5h48q-6 -70 -7 -181q0 -188 15 -311q-152 6 -510 6q-381 0 -551 -6v41l702 1362h-221q-168 0 -275.5 -96.5t-133.5 -323.5h-48q6 59 7 156q0 137 -15 311q135 -6 461 -6q403 0 584 6v-41z" />
<glyph unicode="[" horiz-adv-x="659" d="M584 1542h-117v-1874h117v-39h-412v1952h412v-39z" />
<glyph unicode="\" horiz-adv-x="753" d="M621 -29h67l-557 1508h-67z" />
<glyph unicode="]" horiz-adv-x="659" d="M75 1542h117v-1874h-117v-39h412v1952h-412v-39z" />
<glyph unicode="^" horiz-adv-x="1083" d="M731.5 847q108.5 -114 235.5 -183l-17 -29q-129 31 -252 78t-198 94q-61 -47 -161.5 -94t-207.5 -78l-16 29q127 70 235.5 182t171.5 235h37q64 -120 172.5 -234z" />
<glyph unicode="_" horiz-adv-x="1245" d="M1124 -353.357h-1003v177.761h1003v-177.761z" />
<glyph unicode="`" horiz-adv-x="606" d="M211 1700q27 0 53.5 -13.5t44.5 -35.5q23 -27 38.5 -58.5t41.5 -95.5q59 -152 115 -252l-22 -18q-94 88 -218 174q-39 29 -72.5 56.5t-56.5 53.5q-31 41 -30 82q0 49 37 80q28 27 69 27z" />
<glyph unicode="a" horiz-adv-x="1060" d="M123.5 53.5q-64.5 67.5 -64.5 177.5q0 92 48.5 152.5t117 93.5t174.5 70q113 39 165 70.5t52 87.5v159q0 86 -39.5 134.5t-123.5 48.5q-98 0 -150 -50q57 -20 89 -61t32 -96q0 -70 -47 -111t-115 -41q-72 0 -110.5 45t-38.5 113q0 57 27.5 97t84.5 75q55 33 136 51 t178 18q100 0 173.5 -20t123.5 -70q45 -45 60 -110.5t15 -177.5v-557q0 -49 9.5 -70t35.5 -21q31 0 74 35l21 -35q-92 -76 -226 -75q-113 0 -157.5 45t-46.5 121q-102 -166 -302 -166q-131 0 -195.5 67.5zM616 201v420q-25 -41 -104 -91q-80 -51 -121 -102t-41 -147 q0 -84 35 -124t92 -40q80 0 139 84z" />
<glyph unicode="b" horiz-adv-x="1200" d="M1020 951q102 -136 102 -394q0 -301 -131 -443.5t-338 -142.5q-141 0 -229 72q-74 6 -147.5 -16.5t-116.5 -59.5l-31 19q14 51 14 114v1256q0 94 -29.5 137t-101.5 43v43q63 -6 127 -6q178 0 299 29v-709q43 94 125 144t189 50q166 0 268 -136zM757.5 141 q55.5 127 55.5 387q0 252 -47 361.5t-135 109.5q-66 0 -120 -48t-73 -130v-751q68 -55 152 -56q112 0 167.5 127z" />
<glyph unicode="c" horiz-adv-x="1015" d="M725 1071q68 -16 113 -45q53 -33 82.5 -83t29.5 -109q0 -72 -45 -118t-117 -46t-114.5 41t-42.5 110q0 61 39 106.5t96 61.5q-16 23 -50 36t-73 13q-123 0 -191.5 -134t-68.5 -351q0 -219 78 -315.5t194 -96.5q70 0 140.5 37t128.5 129l34 -12q-41 -133 -143 -228.5 t-264 -95.5q-211 0 -344 139.5t-133 413.5q0 180 65.5 307t180 191.5t262.5 64.5q75 0 143 -16z" />
<glyph unicode="d" horiz-adv-x="1224" d="M1085.5 88q28.5 -43 102.5 -43v-43q-63 6 -127 6q-182 0 -299 -28v176q-70 -184 -266 -185q-193 0 -306.5 140.5t-111.5 423.5q0 180 58.5 304t161.5 186t237 62q150 0 227 -77v348q0 94 -30 137t-101 43v43q66 -6 127 -6q178 0 299 29v-1379q0 -94 28.5 -137z M699.5 108.5q52.5 49.5 62.5 133.5v716q-51 70 -150 70q-109 0 -168 -125t-57 -373q-2 -250 48 -360.5t145 -110.5q67 0 119.5 49.5z" />
<glyph unicode="e" horiz-adv-x="1032" d="M922 303l36 -12q-41 -133 -146 -226.5t-263 -93.5q-217 0 -345 138.5t-128 408.5q0 276 137 422.5t365 146.5q385 0 385 -454h-576q-2 -31 -2 -96q0 -135 38 -225.5t98.5 -131.5t129.5 -41q169 0 271 164zM443.5 953q-48.5 -91 -60.5 -281h322q4 162 -32 267t-108 105 q-73 0 -121.5 -91z" />
<glyph unicode="f" horiz-adv-x="720" d="M809 1534q31 -25 50.5 -64.5t19.5 -89.5q0 -57 -41 -99t-105 -42q-70 0 -112.5 39t-42.5 106q0 53 30.5 94.5t89.5 57.5q-6 12 -25.5 20.5t-47.5 8.5q-78 0 -111 -54q-23 -31 -31 -90t-8 -178v-186h219v-41h-219v-805q0 -94 48 -131t145 -37v-43l-58 2q-227 6 -295 6 q-61 0 -266 -8v43q74 0 102.5 31.5t28.5 115.5v826h-139v41h139q0 178 29 275.5t100 166.5q45 45 121 74t160 29q127 0 219 -68z" />
<glyph unicode="g" horiz-adv-x="1132" d="M950.5 890q-28.5 28 -28.5 79q0 49 24 100q-49 -20 -80.5 -46t-54.5 -65q63 -76 63 -196q0 -162 -111.5 -244t-295.5 -82h-37q-84 -49 -84 -108q0 -66 82 -66h223q180 0 288 -66.5t108 -203.5q0 -104 -67 -189.5t-202 -136.5t-332 -51q-199 0 -318.5 50t-119.5 145 q0 63 57.5 113t170.5 79l18 -33q-74 -61 -74 -141q0 -86 78 -132t215 -46q143 0 232.5 57t89.5 162q0 68 -50.5 106.5t-175.5 38.5h-127q-131 0 -204.5 44t-73.5 135q0 76 53 135t162 114q-147 18 -233.5 98.5t-86.5 221.5q0 162 112 243.5t296 81.5q205 0 313 -96 q39 55 96.5 88t116.5 33q61 0 97 -36t36 -93t-31.5 -89t-74.5 -32q-41 0 -69.5 28zM554 538.5q30 65.5 30 223.5t-30 223.5t-87 65.5t-87 -65.5t-30 -223.5t30 -223.5t87 -65.5t87 65.5z" />
<glyph unicode="h" horiz-adv-x="1245" d="M465 897q92 190 334 190q160 0 225 -79q35 -39 50.5 -101.5t15.5 -165.5v-551q0 -84 28.5 -115.5t102.5 -31.5v-43q-213 8 -271 8q-70 0 -266 -8v43q61 0 86 31.5t25 115.5v637q0 84 -28 127t-99 43q-86 0 -144.5 -66.5t-58.5 -168.5v-572q0 -84 24.5 -115.5t85.5 -31.5 v-43q-197 8 -253 8q-70 0 -283 -8v43q72 0 101.5 31.5t29.5 115.5v1166q0 94 -29.5 137t-101.5 43v43q66 -6 127 -6q178 0 299 29v-705z" />
<glyph unicode="i" horiz-adv-x="645" d="M451.5 1545q50.5 -42 50.5 -115q0 -74 -50.5 -116t-136.5 -42t-136 42t-50 116t50 115.5t136 41.5t136.5 -42zM475 190q0 -84 30 -115.5t101 -31.5v-43q-205 8 -272 8q-63 0 -285 -8v43q74 0 102.5 31.5t28.5 115.5v646q0 94 -28.5 137t-102.5 43v43q66 -6 127 -6 q182 0 299 28v-891z" />
<glyph unicode="j" horiz-adv-x="608" d="M-47 -348q102 4 160.5 82t58.5 229v873q0 94 -29.5 137t-101.5 43v43q66 -6 127 -6q178 0 299 28v-888q0 -172 -34 -283t-114 -184q-121 -111 -366 -111v37zM433.5 1545q50.5 -42 50.5 -115q0 -74 -50.5 -116t-136.5 -42t-136 42t-50 116t50 115.5t136 41.5t136.5 -42z " />
<glyph unicode="k" horiz-adv-x="1198" d="M1142.5 76.5q20.5 -23.5 53.5 -33.5v-43q-164 8 -215 8q-68 0 -264 -8v43q29 0 45 10t16 29q0 10 -10 31l-203 366q-20 35 -42.5 47.5t-57.5 16.5v-353q0 -84 26.5 -115.5t96.5 -31.5v-43q-205 8 -266 8q-70 0 -283 -8v43q72 0 101.5 31.5t29.5 115.5v1168 q0 94 -29.5 137t-101.5 43v43q66 -6 127 -6q178 0 299 29v-1022q41 4 70.5 16t52.5 37l155 151q68 68 68 125q0 47 -43 75t-115 32v41q113 -6 240 -6q170 0 240 6v-41q-121 -27 -256 -158l-132 -135l345 -575q32 -50 52.5 -73.5z" />
<glyph unicode="l" horiz-adv-x="636" d="M467 190q0 -84 28.5 -115.5t102.5 -31.5v-43q-213 8 -274 8q-70 0 -283 -8v43q72 0 101.5 31.5t29.5 115.5v1168q0 94 -29.5 137t-101.5 43v43q66 -6 127 -6q178 0 299 29v-1414z" />
<glyph unicode="m" horiz-adv-x="1853" d="M1725.5 74.5q29.5 -31.5 101.5 -31.5v-43q-205 8 -271 8q-57 0 -253 -8v43q55 0 76.5 30.5t21.5 116.5v637q0 86 -25.5 128t-97.5 42q-76 0 -132 -63.5t-67 -155.5v-37v-551q0 -84 25.5 -115.5t93.5 -31.5v-43q-197 8 -258 8q-57 0 -254 -8v43q55 0 76.5 31.5t21.5 115.5 v637q0 86 -22.5 128t-87.5 42q-82 0 -140.5 -68.5t-58.5 -168.5v-570q0 -84 21.5 -115.5t76.5 -31.5v-43q-180 8 -241 8t-283 -8v43q74 0 102.5 31.5t28.5 115.5v646q0 94 -28.5 137t-102.5 43v43q66 -6 127 -6q182 0 299 28v-184q90 190 318 190q156 0 225 -79 q39 -41 51 -123q53 111 139 156.5t201 45.5q156 0 225 -79q33 -37 47.5 -100.5t14.5 -166.5v-551q0 -84 29.5 -115.5z" />
<glyph unicode="n" horiz-adv-x="1257" d="M1036 1008q35 -39 49.5 -100.5t14.5 -166.5v-551q0 -84 29.5 -115.5t101.5 -31.5v-43q-205 8 -270 8q-61 0 -267 -8v43q61 0 86 31.5t25 115.5v637q0 84 -27.5 127t-99.5 43q-84 0 -143.5 -68.5t-59.5 -168.5v-570q0 -84 24.5 -115.5t86.5 -31.5v-43q-188 8 -254 8 q-61 0 -283 -8v43q74 0 102.5 31.5t28.5 115.5v646q0 94 -28.5 137t-102.5 43v43q66 -6 127 -6q182 0 299 28v-184q92 190 336 190q155 1 225 -79z" />
<glyph unicode="o" horiz-adv-x="1157" d="M946 953q133 -134 133 -425t-133 -424t-368 -133q-233 0 -367.5 133.5t-134.5 423.5q0 291 134 425t368 134q235 0 368 -134zM437 919q-52 -128 -52 -391q0 -262 52 -389t141 -127q90 0 141 126t51 390t-52 391.5t-140 127.5q-89 0 -141 -128z" />
<glyph unicode="p" horiz-adv-x="1228" d="M974 1030q83 -57 130 -172t47 -280q0 -293 -128 -450t-347 -157q-61 0 -115.5 16.5t-93.5 49.5v-205q0 -90 45 -125t139 -35v-43l-55 2q-227 6 -289 7q-61 0 -258 -9v43q68 0 95.5 30t27.5 110v1024q0 94 -29.5 137t-101.5 43v43q66 -6 127 -6q178 0 299 28v-188 q43 94 125 144t192 50q107 0 190 -57zM784.5 157q57.5 130 57.5 380t-46 356t-132 106q-70 0 -124.5 -47t-72.5 -131v-739q49 -55 129 -55q131 0 188.5 130z" />
<glyph unicode="q" horiz-adv-x="1198" d="M1082.5 -298q27.5 -30 95.5 -30v-43q-197 8 -258 9q-61 0 -289 -7l-56 -2v43q94 0 139.5 35t45.5 125v326q-35 -92 -102.5 -139.5t-161.5 -47.5q-186 0 -303 141.5t-117 422.5q0 270 121.5 411t326.5 141q86 0 146.5 -19t107.5 -64q72 -2 145.5 23.5t114.5 64.5l31 -17 q-14 -51 -14 -117v-1146q0 -80 27.5 -110zM693 105.5q50 46.5 67 123.5v754q-59 61 -158 61q-217 0 -217 -514q0 -252 51 -361.5t146 -109.5q61 0 111 46.5z" />
<glyph unicode="r" horiz-adv-x="956" d="M893 1032q47 -55 47 -133q0 -76 -44 -124t-116 -48q-70 0 -110.5 36t-40.5 95q0 98 90 160q-8 2 -25 2q-20 0 -32 -4q-78 -12 -132.5 -94t-54.5 -168v-543q0 -94 46 -131t147 -37v-43q-29 0 -47 2q-209 6 -279 6q-55 0 -252 -6q-16 -2 -41 -2v43q74 0 102.5 31.5 t28.5 115.5v646q0 94 -28.5 137t-102.5 43v43q66 -6 127 -6q182 0 299 28v-190q39 88 113 142t166 54t139 -55z" />
<glyph unicode="s" horiz-adv-x="946" d="M598 1068q66 -19 100 -44q20 -14 37 -14q18 0 31.5 19.5t17.5 55.5h43q-8 -104 -8 -360h-43q-18 135 -80.5 226t-181.5 91q-61 0 -101 -34.5t-40 -96.5q0 -70 47 -120t147 -121l60 -43q125 -94 184 -168t59 -185q0 -90 -52 -159.5t-140 -106.5t-195 -37q-113 0 -192 43 q-66 33 -94 43q-20 6 -36 -13t-24 -58h-43q8 117 8 409h43q41 -377 277 -377q59 0 101 36t42 110q0 57 -25.5 102t-64.5 80t-117 96q-92 74 -140 119t-82 106.5t-34 137.5q0 131 102.5 206.5t250.5 75.5q77 0 143 -19z" />
<glyph unicode="t" horiz-adv-x="720" d="M465 1059h242v-41h-242v-828q0 -61 21.5 -86.5t68.5 -25.5q88 0 139 123l35 -19q-78 -211 -280 -211q-135 0 -205 70q-43 43 -58.5 107.5t-15.5 177.5v692h-172v41h172v270q170 0 295 66v-336z" />
<glyph unicode="u" horiz-adv-x="1241" d="M1069 223q0 -94 29.5 -137t101.5 -43v-43q-63 6 -127 6q-178 0 -299 -29v185q-94 -190 -330 -191q-154 0 -223 80q-33 39 -48 101.5t-15 164.5v519q0 94 -30 137t-101 43v43q63 -6 127 -6q178 0 299 28v-848q0 -86 25.5 -129t96.5 -43q82 0 140.5 69t58.5 169v537 q0 94 -29.5 137t-101.5 43v43q66 -6 127 -6q178 0 299 28v-858z" />
<glyph unicode="v" horiz-adv-x="1040" d="M1038 1059v-41q-43 -12 -76.5 -52t-64.5 -124l-299 -846q-23 2 -68 2q-43 0 -65 -2l-365 905q-29 70 -58.5 92.5t-59.5 22.5v43q143 -10 290 -10q129 0 267 10v-43q-70 0 -99.5 -9.5t-29.5 -50.5q0 -16 10 -51l233 -620l148 405q33 96 33 166q0 150 -150 162v41 q94 -6 197 -6q104 0 157 6z" />
<glyph unicode="w" horiz-adv-x="1611" d="M1612 1059v-41q-43 -12 -78 -51t-61 -125l-273 -846q-23 2 -67 2q-43 0 -66 -2l-279 760l-227 -760q-20 2 -65 2t-68 -2l-324 905q-25 72 -55.5 93.5t-62.5 21.5v43q133 -12 290 -12q102 0 267 12v-43q-68 0 -97.5 -10.5t-29.5 -49.5q0 -27 10 -55l184 -579l224 739 l75 -2l74 2l266 -782l129 411q29 96 29 156q0 160 -162 172v41q96 -6 211 -6q105 0 156 6z" />
<glyph unicode="x" horiz-adv-x="1097" d="M1040.5 73.5q24.5 -24.5 57.5 -30.5v-43q-164 8 -219 8q-61 0 -267 -8v43q31 0 50.5 10t19.5 31q0 12 -10 29l-213 317l-72 -90q-68 -88 -68 -164q0 -57 40 -93t108 -42v-41q-119 6 -295 6q-84 0 -143 -6v41q47 16 90 53t96 105l219 268l-301 446q-39 55 -61.5 77 t-53.5 26v43q180 -8 244 -8q53 0 242 8v-43q-31 0 -50.5 -10.5t-19.5 -30.5q0 -16 10 -29l193 -287l78 103q72 94 71 158q0 43 -31.5 68.5t-92.5 29.5v41q119 -6 231 -6q86 0 145 6v-41q-86 -29 -188 -158l-188 -235l321 -480q33 -47 57.5 -71.5z" />
<glyph unicode="y" horiz-adv-x="1062" d="M1051 1059v-41q-43 -12 -77 -52t-65 -124l-366 -1030q-41 -106 -90 -146q-59 -51 -179 -51q-86 0 -154.5 42t-68.5 122q0 63 45 101t119 38q70 0 112 -34t42 -95q0 -43 -27 -79t-76 -54q14 -2 47 -2q127 0 187 162l32 98l-434 987q-33 70 -63.5 92.5t-63.5 22.5v43 q135 -12 281 -12q121 0 285 12v-43q-66 0 -97.5 -9.5t-31.5 -48.5q0 -23 14 -57l250 -604l141 393q33 96 33 164q0 150 -152 164v41q96 -6 199 -6t158 6z" />
<glyph unicode="z" horiz-adv-x="970" d="M397 31h107q131 0 221 87t106 279h43q0 -291 9 -405q-166 8 -394 8q-201 0 -426 -10l512 1038h-114q-293 0 -320 -366h-43q0 291 -8 405q166 -8 393 -8q201 0 426 10z" />
<glyph unicode="{" horiz-adv-x="681" d="M647 1563q-66 -2 -96.5 -31t-42.5 -118t-12 -286q0 -252 -108.5 -363.5t-295.5 -152.5q186 -41 295 -153.5t109 -362.5q0 -205 12 -295t42 -117.5t97 -29.5v-39q-170 0 -265 42t-138 146.5t-43 292.5q0 197 -13.5 300.5t-46 147.5t-96.5 50h-10v37h10q63 4 96 48 t46.5 147.5t13.5 301.5q0 182 43 283.5t139 146t264 44.5v-39z" />
<glyph unicode="|" horiz-adv-x="518" d="M350 -399h-180v2156h180v-2156z" />
<glyph unicode="}" horiz-adv-x="681" d="M35 1563q66 -2 96.5 -31t42.5 -118t12 -286q0 -252 108.5 -363.5t295.5 -152.5q-186 -41 -295 -153.5t-109 -362.5q0 -205 -12 -295t-42 -117.5t-97 -29.5v-39q170 0 265 42t138 146.5t43 292.5q0 197 13.5 300.5t46 147.5t96.5 50h10v37h-10q-63 4 -96 48t-46.5 147.5 t-13.5 301.5q0 182 -43 283.5t-139 146t-264 44.5v-39z" />
<glyph unicode="~" horiz-adv-x="1368" d="M577.5 773.5q65.5 -23.5 153.5 -71.5q90 -45 148.5 -66.5t126.5 -21.5q154 0 208 144l37 -8q-14 -143 -104 -230.5t-211 -87.5q-74 0 -138.5 23.5t-152.5 68.5t-149.5 67.5t-128.5 22.5q-150 0 -209 -143l-35 8q14 143 103 230.5t210 87.5q76 0 141.5 -23.5z" />
<glyph unicode="&#xa1;" horiz-adv-x="567" d="M412 1045.5q47 -41.5 47 -115.5t-47 -116t-127 -42t-127 42t-47 116t47 115.5t127 41.5t127 -41.5zM327.5 409.5q22.5 -116.5 65.5 -288.5q29 -121 43.5 -190.5t14.5 -123.5q0 -94 -46.5 -143t-121.5 -49q-74 0 -121 50t-47 142q0 51 13 119t44 191q43 174 65.5 291.5 t26.5 242.5h37q4 -125 26.5 -241.5z" />
<glyph unicode="&#xa2;" horiz-adv-x="1021" d="M814 71.5q-97 -94.5 -251 -100.5v-342h-45v342q-203 8 -327.5 147.5t-124.5 405.5q0 252 124.5 397.5t327.5 163.5v365h45v-363h10q76 0 143.5 -16t112.5 -45q53 -33 83 -83t30 -109q0 -72 -45 -118t-117 -46t-114.5 41t-42.5 110q0 61 38.5 106.5t96.5 61.5 q-16 23 -50 36t-73 13q-123 0 -191.5 -134t-68.5 -351q0 -219 77.5 -315.5t194.5 -96.5q70 0 140.5 37t127.5 129l35 -12q-39 -129 -136 -223.5z" />
<glyph unicode="&#xa3;" horiz-adv-x="1351" d="M1211.5 428q76.5 -70 76.5 -180q0 -125 -79 -201t-230 -76q-78 0 -145.5 20.5t-165.5 61.5q-88 39 -152 58q-57 16 -100 16q-57 0 -113 -21q-43 -66 -92 -100.5t-98 -34.5q-45 0 -45 33t50 71t128 56q20 59 25 128t5 204v65v80h-157v41h157v164h-157v41h157v45 q0 608 517 608q145 0 223 -49q102 -61 102 -158q0 -63 -42 -105t-105 -42q-66 0 -107 38t-41 97q0 53 28 93t79 59q-16 14 -49 23.5t-72 9.5q-98 0 -148.5 -57.5t-66.5 -166t-16 -297.5v-98h247v-41h-247v-123q0 -29 -3 -41h250v-41h-254q-14 -102 -59 -183t-139 -204 l-51 -69q88 74 162.5 102.5t144.5 28.5q53 0 96 -8.5t111 -26.5q63 -16 104 -24.5t90 -8.5q63 0 100 34t37 83q0 61 -40 99t-109 52l8 33q109 -18 185.5 -88z" />
<glyph unicode="&#xa4;" horiz-adv-x="1259" d="M1141 948l-123 -121q57 -98 57 -213q0 -117 -57 -213l121 -120l-174 -175l-121 121q-98 -57 -213 -57q-117 0 -213 57l-119 -121l-176 175l119 118q-57 104 -58 215q0 115 60 213l-121 121l174 174l121 -121q94 59 213 60q115 0 213 -60l123 121zM465 794.5 q-70 -75.5 -70 -180.5q0 -104 70 -179t168 -75q63 0 117.5 35t86 93.5t31.5 125.5q0 68 -31.5 127.5t-86 94t-117.5 34.5q-98 0 -168 -75.5z" />
<glyph unicode="&#xa5;" horiz-adv-x="1388" d="M1329 1452v-41q-94 -39 -196 -237l-242 -480v-73h254v-41h-254v-164h254v-41h-254v-158q0 -78 11 -112.5t42 -47t100 -16.5v-41q-111 6 -315 6q-219 0 -317 -6v41q68 4 99.5 16.5t42.5 47t11 112.5v158h-258v41h258v147l-8 17h-250v41h228l-365 673q-63 115 -119 115v43 q90 -10 242 -10q190 0 385 10v-43q-72 0 -114 -13.5t-42 -47.5q0 -18 15 -45l311 -601l160 320q80 162 79 254q0 70 -44 100.5t-125 34.5v41q139 -6 256 -6q94 0 155 6z" />
<glyph unicode="&#xa6;" horiz-adv-x="524" d="M352 786h-180v971h180v-971zM352 -399h-180v1067h180v-1067z" />
<glyph unicode="&#xa7;" horiz-adv-x="1189" d="M1060.5 402q-59.5 -83 -196.5 -154q78 -68 116 -137.5t38 -153.5q0 -102 -58.5 -180t-165 -120t-243.5 -42t-242 45q-135 66 -135 190q0 59 42 101.5t110 42.5q70 0 112.5 -39t42.5 -102q0 -51 -27.5 -93.5t-76.5 -58.5q12 -20 60 -33.5t100 -13.5q111 0 163 54t52 132 q0 68 -31 119t-80 91t-147 106l-70 47q-131 88 -201.5 147.5t-109.5 126t-39 152.5q0 102 58 186t196 156q-78 68 -115 136.5t-37 152.5q0 102 58.5 180t164 120t242.5 42q143 0 242 -46q135 -66 135 -190q0 -59 -42 -101t-110 -42q-70 0 -112.5 38.5t-42.5 102.5 q0 51 27.5 93t76.5 59q-12 23 -60 35t-100 12q-111 0 -162 -54.5t-51 -132.5q0 -70 31 -121t81 -91t151 -107l65 -43q131 -88 201.5 -147.5t109.5 -126t39 -152.5q0 -103 -59.5 -186zM881.5 350q17.5 39 17.5 90q0 59 -34 110.5t-101.5 105t-196.5 139.5q-147 98 -202 143 q-35 -33 -52.5 -72t-17.5 -90q0 -59 33.5 -110.5t101.5 -104.5t197 -139q147 -98 202 -143q35 32 52.5 71z" />
<glyph unicode="&#xa8;" horiz-adv-x="978" d="M365 1510q47 -46 47 -107q0 -63 -47 -108.5t-109 -45.5q-63 0 -108 45t-45 109q0 61 45 107t108 46q62 0 109 -46zM831 1510q46 -46 46 -107q0 -63 -46 -108.5t-108 -45.5q-66 0 -111 45t-45 109q0 61 46.5 107t109.5 46q62 0 108 -46z" />
<glyph unicode="&#xa9;" horiz-adv-x="1804" d="M1309.5 1492q187.5 -110 297 -297t109.5 -409q0 -221 -109.5 -408.5t-297 -297t-408.5 -109.5t-408.5 109.5t-297 297t-109.5 408.5t109.5 408.5t297 297.5t408.5 110t408.5 -110zM533.5 1434.5q-168.5 -101.5 -267 -273.5t-98.5 -375t98.5 -374.5t267 -273t367.5 -101.5 t368 101.5t267 273.5t98 374q0 203 -98 375t-267 273.5t-368 101.5t-367.5 -101.5zM1093.5 1327.5q67.5 -18.5 114.5 -47.5q49 -33 79 -81t30 -107q0 -72 -45 -118t-117 -46t-115 42t-43 111q0 61 38 105.5t98 60.5q-20 23 -60.5 37t-83.5 14q-59 0 -108 -36 q-63 -37 -97 -141.5t-34 -311.5q0 -238 76.5 -343.5t193.5 -105.5q170 0 268 205l37 -14q-41 -133 -144.5 -227.5t-262.5 -94.5q-213 0 -345.5 138.5t-132.5 414.5q0 180 64.5 307.5t180.5 192t263 64.5q78 0 145.5 -18.5z" />
<glyph unicode="&#xaa;" horiz-adv-x="987" d="M731 1417.5q74 -61.5 74 -198.5v-345q0 -29 9 -41t30 -12q33 0 59 23l23 -31q-98 -76 -234 -76q-80 0 -112.5 24.5t-36.5 72.5q-98 -96 -246 -97q-88 0 -145.5 41t-57.5 121t65.5 126t219.5 95q164 53 164 115v37q0 88 -32 128t-95 40q-66 0 -113 -31q43 -12 66.5 -45 t23.5 -72q0 -55 -40 -86.5t-97 -31.5q-61 0 -98 31.5t-37 84.5q0 47 29.5 83t80.5 59q102 47 263 47q163 0 237 -61.5zM459 1094q-47 -35 -69.5 -72t-22.5 -84t21.5 -75.5t55.5 -28.5q53 0 99 38v302q-14 -31 -84 -80z" />
<glyph unicode="&#xab;" horiz-adv-x="1165" d="M649 1079q-47 -158 -128 -309.5t-163 -237.5q82 -84 162 -238.5t129 -313.5l-31 -11q-127 176 -263 310.5t-302 236.5v27q164 102 300 237t265 312zM1057 1030q-41 -145 -110.5 -282.5t-141.5 -215.5q72 -78 141.5 -217t110.5 -286l-31 -11q-115 160 -239.5 283 t-274.5 215v27q152 92 275.5 216t238.5 283z" />
<glyph unicode="&#xac;" horiz-adv-x="1314" d="M1178 338h-74v358h-952v62h1026v-420z" />
<glyph unicode="&#xad;" horiz-adv-x="985" />
<glyph unicode="&#xae;" horiz-adv-x="1361" d="M967 1525q131 -77 207.5 -208t76.5 -287t-76.5 -287t-207.5 -207.5t-287 -76.5t-287 76.5t-207.5 207.5t-76.5 287t76.5 287t207.5 208t287 77t287 -77zM924.5 593q111.5 69 176 184.5t64.5 252.5t-64.5 253t-176 184.5t-244.5 68.5t-244.5 -68.5t-176 -184.5t-64.5 -253 t64.5 -252.5t176 -184.5t244.5 -69t244.5 69zM1026 745q-31 -37 -106 -36q-66 0 -99 21.5t-43 66.5l-30 149q-8 37 -18.5 54.5t-35 26.5t-76.5 11v-211q0 -47 8.5 -59t39.5 -16v-31l-129 2l-136 -2v31q31 4 39.5 16t8.5 59v449q0 47 -8.5 60.5t-39.5 17.5v30q29 -2 127 -2 l177 2q250 0 249 -161q0 -55 -47 -101.5t-164 -66.5q94 -8 132 -35t51 -84l30 -133q6 -27 12.5 -38t18.5 -11t23 12zM628.5 1342.5q-10.5 -11.5 -10.5 -46.5v-223h25q139 0 139 137q0 72 -26.5 108t-83.5 36q-33 0 -43.5 -11.5z" />
<glyph unicode="&#xaf;" horiz-adv-x="892" d="M790 1407h-688v51h688v-51z" />
<glyph unicode="&#xb0;" horiz-adv-x="636" d="M494.5 1611.5q72.5 -67.5 72.5 -177.5q0 -111 -72.5 -179.5t-177.5 -68.5q-102 0 -174.5 68.5t-72.5 179.5t72.5 178t174.5 67q105 0 177.5 -67.5zM181.5 1587.5q-60.5 -57.5 -60.5 -155.5q0 -100 59.5 -155.5t136.5 -55.5q78 0 138.5 55t60.5 156q0 98 -61.5 155.5 t-137.5 57.5q-75 0 -135.5 -57.5z" />
<glyph unicode="&#xb1;" horiz-adv-x="1185" d="M1108 0h-1026v62h1026v-62zM627 758h475v-62h-475v-481h-74v481h-477v62h477v483h74v-483z" />
<glyph unicode="&#xb2;" horiz-adv-x="718" d="M531.5 1507q62.5 -39 62.5 -112q0 -74 -53.5 -128.5t-163.5 -127.5q-92 -59 -121 -84h276q45 0 62.5 15t34.5 54l35 -6q-29 -139 -31 -227q-25 6 -78 6h-500v41q39 33 84 66q125 96 194.5 174.5t69.5 179.5q0 51 -32.5 78.5t-91.5 27.5q-115 0 -179 -98l-30 16 q41 72 113.5 118t183.5 46q102 0 164.5 -39z" />
<glyph unicode="&#xb3;" horiz-adv-x="675" d="M518.5 1509q65.5 -39 65.5 -108q0 -72 -63.5 -122t-176.5 -73q115 4 194.5 -47t79.5 -139q0 -94 -82.5 -160.5t-214 -103.5t-272.5 -43v35q170 16 276.5 91.5t106.5 190.5q0 63 -33.5 106.5t-91.5 47.5q-10 -6 -33.5 -17.5t-40.5 -11.5q-33 0 -32 25q0 20 23.5 25t66.5 3 q55 27 78.5 69t23.5 81q0 51 -34.5 81.5t-94.5 30.5q-55 0 -102 -26.5t-78 -75.5l-31 16q90 164 297 164q103 0 168.5 -39z" />
<glyph unicode="&#xb4;" horiz-adv-x="606" d="M502 1595q0 -43 -31 -84q-23 -27 -56.5 -54t-72.5 -56q-123 -86 -217 -174l-23 18q55 100 115 252q27 63 42 95t38 59q39 49 96 49q43 0 72 -27q37 -27 37 -78z" />
<glyph unicode="&#xb6;" horiz-adv-x="1499" d="M1077 1448l185 -2q104 0 155 4v-39q-88 -4 -116.5 -34.5t-28.5 -104.5v-1426q0 -78 11 -112.5t42 -47t100 -16.5v-41q-127 6 -358 6q-223 0 -328 -6v41q86 4 130 22.5t60.5 58.5t16.5 116v106q-461 0 -669.5 206t-208.5 558q0 209 95 371t274 253t425 91q80 0 215 -4z M916.5 1258.5q-21.5 -84.5 -39 -218t-19.5 -278.5q-154 0 -293 -8.5t-227 -19.5t-88 -15q0 -10 188.5 -25.5t419.5 -15.5q2 -150 19.5 -283t39 -215t31.5 -82v1245q-10 0 -31.5 -84.5z" />
<glyph unicode="&#xb7;" horiz-adv-x="569" d="M411.5 691q47.5 -42 47.5 -116t-47.5 -116t-127.5 -42t-127 42t-47 116t47.5 116t126.5 42q80 0 127.5 -42z" />
<glyph unicode="&#xb8;" horiz-adv-x="669" d="M280 -133q63 25 145 24q68 0 105 -29.5t37 -80.5q0 -82 -82 -124t-205 -42q-109 0 -178 25l10 36q66 -8 90 -8q59 0 104.5 20.5t45.5 63.5q0 53 -68 53q-47 0 -82 -14l66 213h55z" />
<glyph unicode="&#xb9;" horiz-adv-x="579" d="M416 1038q0 -57 30.5 -78.5t106.5 -21.5v-43q-90 4 -236 4q-145 0 -243 -4v43q76 0 113.5 21.5t37.5 78.5v265q0 59 -14 86.5t-48 37t-104 9.5v43q127 2 207 16t150 47v-504z" />
<glyph unicode="&#xba;" horiz-adv-x="958" d="M766 1381.5q113 -97.5 113 -273.5t-113 -273.5t-287 -97.5t-286.5 97.5t-112.5 273.5t112.5 273.5t286.5 97.5t287 -97.5zM388 1360q-34 -82 -34 -252t34 -252t91 -82t92 82t35 252t-34.5 252t-92.5 82q-57 0 -91 -82z" />
<glyph unicode="&#xbb;" horiz-adv-x="1165" d="M810 781.5q136 -136.5 302 -240.5v-25q-166 -104 -302 -240.5t-261 -308.5l-33 13q47 158 128 309t163 237q-82 84 -162 238t-129 315l33 11q125 -172 261 -308.5zM382 756q124 -123 273 -215v-25q-150 -92 -274.5 -215t-241.5 -285l-30 13q41 145 110.5 282.5 t140.5 214.5q-72 78 -141 217.5t-110 286.5l30 10q119 -161 243 -284z" />
<glyph unicode="&#xbc;" horiz-adv-x="1452" d="M1397 1661l-1198 -1774l-39 27l1198 1774zM447 1038q0 -57 30.5 -78.5t106.5 -21.5v-43q-90 4 -236 4q-145 0 -243 -4v43q76 0 113.5 21.5t37.5 78.5v265q0 59 -14 86.5t-48 37t-104 9.5v43q127 2 207 16t150 47v-504zM1309 219q-23 -72 -29 -188q-25 6 -77 6h-54v-240 h-149v240h-400v43l506 559h43v-483h29q45 0 62.5 15t33.5 54zM1000 156v317l-287 -317h287z" />
<glyph unicode="&#xbd;" horiz-adv-x="1474" d="M1364 1661l-1198 -1774l-39 27l1198 1774zM451 1038q0 -57 30.5 -78.5t106.5 -21.5v-43q-90 4 -236 4q-145 0 -243 -4v43q76 0 113.5 21.5t37.5 78.5v265q0 59 -14 86.5t-48 37t-104 9.5v43q127 2 207 16t150 47v-504zM1272.5 612q62.5 -39 62.5 -112q0 -74 -53.5 -128.5 t-163.5 -127.5q-92 -59 -121 -84h276q45 0 62.5 15t34.5 54l35 -6q-29 -139 -31 -227q-25 6 -78 6h-500v41q39 33 84 66q125 96 194.5 174.5t69.5 179.5q0 51 -32.5 78.5t-91.5 27.5q-115 0 -179 -98l-30 16q41 72 113.5 118t183.5 46q102 0 164.5 -39z" />
<glyph unicode="&#xbe;" horiz-adv-x="1540" d="M1483 1661l-1198 -1774l-39 27l1198 1774zM561.5 1509q65.5 -39 65.5 -108q0 -72 -63.5 -122t-176.5 -73q115 4 194.5 -47t79.5 -139q0 -94 -82.5 -160.5t-214 -103.5t-272.5 -43v35q170 16 276.5 91.5t106.5 190.5q0 63 -33.5 106.5t-91.5 47.5q-10 -6 -33.5 -17.5 t-40.5 -11.5q-33 0 -32 25q0 20 23.5 25t66.5 3q55 27 78.5 69t23.5 81q0 51 -34.5 81.5t-94.5 30.5q-55 0 -102 -26.5t-78 -75.5l-31 16q90 164 297 164q103 0 168.5 -39zM1403 219q-23 -72 -29 -188q-25 6 -77 6h-54v-240h-149v240h-400v43l506 559h43v-483h29 q45 0 62.5 15t33.5 54zM1094 156v317l-287 -317h287z" />
<glyph unicode="&#xbf;" horiz-adv-x="1030" d="M727 1048q47 -42 47 -116t-47 -116t-127 -42t-127 42t-47 116t47 116t127 42t127 -42zM623 379q-160 -68 -215.5 -162t-55.5 -227q0 -170 66.5 -252t183.5 -82q57 0 105.5 11t72.5 34q-115 35 -114 149q0 66 46 107t117 41q63 0 103.5 -41t40.5 -100q0 -111 -117 -174 q-117 -68 -305 -68q-223 0 -357.5 96t-134.5 264q0 158 140.5 266.5t382.5 155.5v265h41v-283z" />
<glyph unicode="&#xc0;" horiz-adv-x="1366" d="M1313 73.5q35 -30.5 67 -32.5v-41q-123 6 -311 6q-209 0 -311 -6v41q78 4 110.5 19.5t32.5 54.5q0 37 -24 98l-123 336h-447l-53 -141q-57 -147 -57 -228q0 -76 46 -105.5t136 -33.5v-41q-139 6 -254 6q-94 0 -156 -6v41q100 18 176 215l467 1198q23 -2 72 -2t70 2 l497 -1282q27 -68 62 -98.5zM739 590l-202 553l-213 -553h415zM544.5 1870.5q26.5 -23.5 71.5 -70.5q102 -111 203 -194l-14 -25q-98 37 -175 57.5t-92 24.5q-47 10 -88 23.5t-71 29.5q-33 18 -51.5 46t-18.5 59q0 27 12 47q14 29 42 45t61 16q35 0 63 -16 q31 -19 57.5 -42.5z" />
<glyph unicode="&#xc1;" horiz-adv-x="1366" d="M1313 73.5q35 -30.5 67 -32.5v-41q-123 6 -311 6q-209 0 -311 -6v41q78 4 110.5 19.5t32.5 54.5q0 37 -24 98l-123 336h-447l-53 -141q-57 -147 -57 -228q0 -76 46 -105.5t136 -33.5v-41q-139 6 -254 6q-94 0 -156 -6v41q100 18 176 215l467 1198q23 -2 72 -2t70 2 l497 -1282q27 -68 62 -98.5zM739 590l-202 553l-213 -553h415zM927 1929q33 0 61 -16.5t42 -44.5q12 -20 12 -47q0 -31 -18.5 -58.5t-50.5 -46.5q-31 -16 -72 -29.5t-88 -23.5q-14 -4 -91 -24.5t-175 -57.5l-15 25q100 84 203 194q45 47 71.5 70.5t57.5 42.5q28 16 63 16z " />
<glyph unicode="&#xc2;" horiz-adv-x="1366" d="M1313 73.5q35 -30.5 67 -32.5v-41q-123 6 -311 6q-209 0 -311 -6v41q78 4 110.5 19.5t32.5 54.5q0 37 -24 98l-123 336h-447l-53 -141q-57 -147 -57 -228q0 -76 46 -105.5t136 -33.5v-41q-139 6 -254 6q-94 0 -156 -6v41q100 18 176 215l467 1198q23 -2 72 -2t70 2 l497 -1282q27 -68 62 -98.5zM739 590l-202 553l-213 -553h415zM877.5 1747q111.5 -86 242.5 -141l-10 -31q-133 25 -263 61.5t-206 71.5q-63 -35 -171 -72t-216 -61l-10 31q131 55 242.5 141t176.5 178h37q66 -92 177.5 -178z" />
<glyph unicode="&#xc3;" horiz-adv-x="1366" d="M1313 73.5q35 -30.5 67 -32.5v-41q-123 6 -311 6q-209 0 -311 -6v41q78 4 110.5 19.5t32.5 54.5q0 37 -24 98l-123 336h-447l-53 -141q-57 -147 -57 -228q0 -76 46 -105.5t136 -33.5v-41q-139 6 -254 6q-94 0 -156 -6v41q100 18 176 215l467 1198q23 -2 72 -2t70 2 l497 -1282q27 -68 62 -98.5zM739 590l-202 553l-213 -553h415zM621.5 1871.5q52.5 -20.5 115.5 -56.5q57 -35 100 -51.5t95 -16.5q109 0 170 111l28 -11q-27 -135 -100.5 -204.5t-171.5 -69.5q-68 0 -118 19.5t-116 58.5q-59 35 -103 51t-95 16q-104 0 -170 -112l-29 10 q29 135 103.5 205.5t170.5 70.5q68 0 120.5 -20.5z" />
<glyph unicode="&#xc4;" horiz-adv-x="1366" d="M1313 73.5q35 -30.5 67 -32.5v-41q-123 6 -311 6q-209 0 -311 -6v41q78 4 110.5 19.5t32.5 54.5q0 37 -24 98l-123 336h-447l-53 -141q-57 -147 -57 -228q0 -76 46 -105.5t136 -33.5v-41q-139 6 -254 6q-94 0 -156 -6v41q100 18 176 215l467 1198q23 -2 72 -2t70 2 l497 -1282q27 -68 62 -98.5zM739 590l-202 553l-213 -553h415zM545 1831q47 -47 47 -109q0 -61 -47 -107t-109 -46q-63 0 -108 45t-45 108q0 61 46 108.5t107 47.5q62 0 109 -47zM1035 1831q46 -47 46 -109q0 -63 -46 -108t-107 -45q-63 0 -109.5 45t-46.5 108 q0 61 46 108.5t110 47.5q61 0 107 -47z" />
<glyph unicode="&#xc5;" horiz-adv-x="1366" d="M1313 73.5q35 -30.5 67 -32.5v-41q-123 6 -311 6q-209 0 -311 -6v41q78 4 110.5 19.5t32.5 54.5q0 37 -24 98l-123 336h-447l-53 -141q-57 -147 -57 -228q0 -76 46 -105.5t136 -33.5v-41q-139 6 -254 6q-94 0 -156 -6v41q100 18 176 215l467 1198q23 -2 72 -2t70 2 l497 -1282q27 -68 62 -98.5zM739 590l-202 553l-213 -553h415zM839.5 1864.5q65.5 -54.5 65.5 -144.5t-65.5 -145t-157.5 -55t-157 55t-65 145t65 144.5t157 54.5t157.5 -54.5zM568 1833q-50 -43 -50 -115q0 -74 50 -114.5t114 -40.5q66 0 116 41t50 114q0 72 -50.5 115 t-115.5 43q-64 0 -114 -43z" />
<glyph unicode="&#xc6;" horiz-adv-x="1820" d="M1729 0q-135 6 -453 6q-391 0 -590 -6v41q61 4 89 16.5t38 47t10 112.5v492h-342l-291 -496q-37 -63 -36 -100q0 -35 34.5 -51.5t106.5 -20.5v-41q-61 6 -186 6q-88 0 -138 -6v41q35 2 68 30.5t74 100.5l696 1182q-12 31 -43 41t-96 14v41q119 -4 192 -4l80 135h49 l-80 -135q145 -2 365 -2q289 0 412 6q-14 -156 -15 -279q0 -90 6 -139h-47q-25 205 -88 288t-174 83h-67q-68 0 -100 -11.5t-43 -46t-11 -112.5v-483h108q63 0 100.5 38.5t48.5 78.5t30 124h47q-6 -78 -6 -174v-88q0 -92 12 -262h-47q-18 117 -54 179.5t-131 62.5h-108v-492 q0 -78 11 -112.5t43 -46t100 -11.5h100q113 0 180.5 94.5t89.5 317.5h47q-6 -68 -6 -172q1 -156 15 -287zM823 750v483q0 41 -2 57l-317 -540h319z" />
<glyph unicode="&#xc7;" horiz-adv-x="1443" d="M1022 1444q86 -35 168 -98q23 -18 39 -19q41 0 53 123h47q-8 -139 -8 -496h-47q-18 152 -49 232t-105 139q-51 49 -118.5 74.5t-141.5 25.5q-207 0 -307 -201.5t-100 -502.5q0 -299 104.5 -500t310.5 -201q70 0 138.5 26t115.5 75q76 57 105.5 143t46.5 252h47 q0 -371 8 -516h-47q-6 66 -17.5 93.5t-31.5 27.5q-16 0 -43 -17q-92 -66 -176 -99.5t-203 -33.5q-217 0 -380 88t-253 255t-90 399q0 225 92 399t257 270.5t376 96.5q123 0 209 -35zM800 -133q70 25 158 24q74 0 114 -29.5t40 -80.5q0 -82 -92.5 -124t-231.5 -42 q-117 0 -190 25l10 36q74 -8 102 -8q76 0 131.5 20.5t55.5 63.5q0 53 -95 53q-49 0 -79 -14l67 219h55z" />
<glyph unicode="&#xc8;" horiz-adv-x="1298" d="M1206 0q-139 6 -469 6q-446 0 -667 -6v41q68 4 99.5 16.5t42.5 47t11 112.5v1016q0 78 -11 112.5t-43 47t-99 16.5v41q221 -6 667 -6q301 0 428 6q-14 -170 -14 -303q0 -90 6 -139h-47q-31 219 -110.5 307t-225.5 88h-84q-63 0 -92 -10.5t-39 -40t-10 -95.5v-507h65 q109 0 165.5 79.5t78.5 190.5h47q-6 -86 -6 -193v-98q0 -104 12 -291h-47q-43 270 -250 271h-65v-516q0 -66 10 -95.5t39 -40t92 -10.5h101q145 0 234 99.5t126 336.5h47q-6 -68 -6 -172q0 -188 14 -311zM505.5 1870.5q26.5 -23.5 71.5 -70.5q102 -111 203 -194l-14 -25 q-98 37 -175 57.5t-92 24.5q-47 10 -88 23.5t-71 29.5q-33 18 -51.5 46t-18.5 59q0 27 12 47q14 29 42 45t61 16q35 0 63 -16q31 -19 57.5 -42.5z" />
<glyph unicode="&#xc9;" horiz-adv-x="1298" d="M1206 0q-139 6 -469 6q-446 0 -667 -6v41q68 4 99.5 16.5t42.5 47t11 112.5v1016q0 78 -11 112.5t-43 47t-99 16.5v41q221 -6 667 -6q301 0 428 6q-14 -170 -14 -303q0 -90 6 -139h-47q-31 219 -110.5 307t-225.5 88h-84q-63 0 -92 -10.5t-39 -40t-10 -95.5v-507h65 q109 0 165.5 79.5t78.5 190.5h47q-6 -86 -6 -193v-98q0 -104 12 -291h-47q-43 270 -250 271h-65v-516q0 -66 10 -95.5t39 -40t92 -10.5h101q145 0 234 99.5t126 336.5h47q-6 -68 -6 -172q0 -188 14 -311zM888 1929q33 0 61 -16.5t42 -44.5q12 -20 12 -47q0 -31 -18.5 -58.5 t-50.5 -46.5q-31 -16 -72 -29.5t-88 -23.5q-14 -4 -91 -24.5t-175 -57.5l-15 25q100 84 203 194q45 47 71.5 70.5t57.5 42.5q28 16 63 16z" />
<glyph unicode="&#xca;" horiz-adv-x="1298" d="M1206 0q-139 6 -469 6q-446 0 -667 -6v41q68 4 99.5 16.5t42.5 47t11 112.5v1016q0 78 -11 112.5t-43 47t-99 16.5v41q221 -6 667 -6q301 0 428 6q-14 -170 -14 -303q0 -90 6 -139h-47q-31 219 -110.5 307t-225.5 88h-84q-63 0 -92 -10.5t-39 -40t-10 -95.5v-507h65 q109 0 165.5 79.5t78.5 190.5h47q-6 -86 -6 -193v-98q0 -104 12 -291h-47q-43 270 -250 271h-65v-516q0 -66 10 -95.5t39 -40t92 -10.5h101q145 0 234 99.5t126 336.5h47q-6 -68 -6 -172q0 -188 14 -311zM838.5 1747q111.5 -86 242.5 -141l-10 -31q-133 25 -263 61.5 t-206 71.5q-63 -35 -171 -72t-216 -61l-10 31q131 55 242.5 141t176.5 178h37q66 -92 177.5 -178z" />
<glyph unicode="&#xcb;" horiz-adv-x="1298" d="M1206 0q-139 6 -469 6q-446 0 -667 -6v41q68 4 99.5 16.5t42.5 47t11 112.5v1016q0 78 -11 112.5t-43 47t-99 16.5v41q221 -6 667 -6q301 0 428 6q-14 -170 -14 -303q0 -90 6 -139h-47q-31 219 -110.5 307t-225.5 88h-84q-63 0 -92 -10.5t-39 -40t-10 -95.5v-507h65 q109 0 165.5 79.5t78.5 190.5h47q-6 -86 -6 -193v-98q0 -104 12 -291h-47q-43 270 -250 271h-65v-516q0 -66 10 -95.5t39 -40t92 -10.5h101q145 0 234 99.5t126 336.5h47q-6 -68 -6 -172q0 -188 14 -311zM506 1831q47 -47 47 -109q0 -61 -47 -107t-109 -46q-63 0 -108 45 t-45 108q0 61 46 108.5t107 47.5q62 0 109 -47zM996 1831q46 -47 46 -109q0 -63 -46 -108t-107 -45q-63 0 -109.5 45t-46.5 108q0 61 46 108.5t110 47.5q61 0 107 -47z" />
<glyph unicode="&#xcc;" horiz-adv-x="770" d="M702 1409q-70 -4 -100.5 -16.5t-41.5 -47t-11 -112.5v-1016q0 -78 11 -112.5t42 -47t100 -16.5v-41q-111 6 -309 6q-219 0 -323 -6v41q68 4 99.5 16.5t42.5 47t11 112.5v1016q0 78 -11 112.5t-43 47t-99 16.5v41q104 -6 323 -6q199 0 309 6v-41zM255.5 1870.5 q26.5 -23.5 71.5 -70.5q102 -111 203 -194l-14 -25q-98 37 -175 57.5t-92 24.5q-47 10 -88 23.5t-71 29.5q-33 18 -51.5 46t-18.5 59q0 27 12 47q14 29 42 45t61 16q35 0 63 -16q31 -19 57.5 -42.5z" />
<glyph unicode="&#xcd;" horiz-adv-x="770" d="M702 1409q-70 -4 -100.5 -16.5t-41.5 -47t-11 -112.5v-1016q0 -78 11 -112.5t42 -47t100 -16.5v-41q-111 6 -309 6q-219 0 -323 -6v41q68 4 99.5 16.5t42.5 47t11 112.5v1016q0 78 -11 112.5t-43 47t-99 16.5v41q104 -6 323 -6q199 0 309 6v-41zM639 1929q33 0 61 -16.5 t42 -44.5q12 -20 12 -47q0 -31 -18.5 -58.5t-50.5 -46.5q-31 -16 -72 -29.5t-88 -23.5q-14 -4 -91 -24.5t-175 -57.5l-15 25q100 84 203 194q45 47 71.5 70.5t57.5 42.5q28 16 63 16z" />
<glyph unicode="&#xce;" horiz-adv-x="770" d="M702 1409q-70 -4 -100.5 -16.5t-41.5 -47t-11 -112.5v-1016q0 -78 11 -112.5t42 -47t100 -16.5v-41q-111 6 -309 6q-219 0 -323 -6v41q68 4 99.5 16.5t42.5 47t11 112.5v1016q0 78 -11 112.5t-43 47t-99 16.5v41q104 -6 323 -6q199 0 309 6v-41zM588.5 1747 q111.5 -86 242.5 -141l-10 -31q-133 25 -263 61.5t-206 71.5q-63 -35 -171 -72t-216 -61l-10 31q131 55 242.5 141t176.5 178h37q66 -92 177.5 -178z" />
<glyph unicode="&#xcf;" horiz-adv-x="770" d="M702 1409q-70 -4 -100.5 -16.5t-41.5 -47t-11 -112.5v-1016q0 -78 11 -112.5t42 -47t100 -16.5v-41q-111 6 -309 6q-219 0 -323 -6v41q68 4 99.5 16.5t42.5 47t11 112.5v1016q0 78 -11 112.5t-43 47t-99 16.5v41q104 -6 323 -6q199 0 309 6v-41zM256 1831q47 -47 47 -109 q0 -61 -47 -107t-109 -46q-63 0 -108 45t-45 108q0 61 46 108.5t107 47.5q62 0 109 -47zM746 1831q46 -47 46 -109q0 -63 -46 -108t-107 -45q-63 0 -109.5 45t-46.5 108q0 61 46 108.5t110 47.5q61 0 107 -47z" />
<glyph unicode="&#xd0;" horiz-adv-x="1589" d="M1300.5 1268.5q198.5 -181.5 198.5 -527.5q0 -223 -97 -390t-280.5 -259t-437.5 -92l-127 2q-119 4 -172 4q-211 0 -315 -6v41q68 4 99.5 16.5t42.5 47t11 112.5v1016q0 78 -11 112.5t-43 47t-99 16.5v41q86 -6 247 -6h64l82 2q168 4 239 4q400 0 598.5 -181.5z M605 1398.5q-32 -14.5 -44 -51t-12 -110.5v-1024q0 -74 12 -110.5t44 -51t97 -14.5q248 0 352.5 173t104.5 523t-107.5 515t-351.5 165q-63 0 -95 -14.5zM803 708h-786v41h786v-41z" />
<glyph unicode="&#xd1;" horiz-adv-x="1478" d="M1419 1409q-68 -10 -99.5 -34.5t-42.5 -78t-11 -157.5v-1143l-49 2l-56 -2l-889 1126v-786q0 -121 12.5 -177.5t53.5 -82t133 -35.5v-41q-80 6 -221 6q-113 0 -178 -6v41q68 10 99.5 34.5t42.5 78t11 157.5v922q0 78 -11 112.5t-43 47t-99 16.5v41q66 -6 178 -6 q102 0 176 6l793 -977v641q0 121 -12.5 177.5t-53.5 82t-133 35.5v41q80 -6 221 -6q115 0 178 6v-41zM715.5 1871.5q52.5 -20.5 115.5 -56.5q57 -35 100 -51.5t95 -16.5q109 0 170 111l28 -11q-27 -135 -100.5 -204.5t-171.5 -69.5q-68 0 -118 19.5t-116 58.5 q-59 35 -103 51t-95 16q-104 0 -170 -112l-29 10q29 135 103.5 205.5t170.5 70.5q68 0 120.5 -20.5z" />
<glyph unicode="&#xd2;" horiz-adv-x="1624" d="M1193 1391q163 -88 253 -255t90 -399q0 -225 -92 -399t-257 -270.5t-376 -96.5q-217 0 -380 88t-253 255t-90 399q0 225 92 399t257 270.5t376 96.5q217 0 380 -88zM606 1351q-86 -91 -132 -255t-46 -375q0 -213 52 -375t141.5 -250t197.5 -88q113 0 199 91t132 255 t46 375q0 213 -52 375t-141.5 250t-197.5 88q-113 0 -199 -91zM671.5 1870.5q26.5 -23.5 71.5 -70.5q102 -111 203 -194l-14 -25q-98 37 -175 57.5t-92 24.5q-47 10 -88 23.5t-71 29.5q-33 18 -51.5 46t-18.5 59q0 27 12 47q14 29 42 45t61 16q35 0 63 -16 q31 -19 57.5 -42.5z" />
<glyph unicode="&#xd3;" horiz-adv-x="1624" d="M1193 1391q163 -88 253 -255t90 -399q0 -225 -92 -399t-257 -270.5t-376 -96.5q-217 0 -380 88t-253 255t-90 399q0 225 92 399t257 270.5t376 96.5q217 0 380 -88zM606 1351q-86 -91 -132 -255t-46 -375q0 -213 52 -375t141.5 -250t197.5 -88q113 0 199 91t132 255 t46 375q0 213 -52 375t-141.5 250t-197.5 88q-113 0 -199 -91zM1054 1929q33 0 61 -16.5t42 -44.5q12 -20 12 -47q0 -31 -18.5 -58.5t-50.5 -46.5q-31 -16 -72 -29.5t-88 -23.5q-14 -4 -91 -24.5t-175 -57.5l-15 25q100 84 203 194q45 47 71.5 70.5t57.5 42.5q28 16 63 16z " />
<glyph unicode="&#xd4;" horiz-adv-x="1624" d="M1193 1391q163 -88 253 -255t90 -399q0 -225 -92 -399t-257 -270.5t-376 -96.5q-217 0 -380 88t-253 255t-90 399q0 225 92 399t257 270.5t376 96.5q217 0 380 -88zM606 1351q-86 -91 -132 -255t-46 -375q0 -213 52 -375t141.5 -250t197.5 -88q113 0 199 91t132 255 t46 375q0 213 -52 375t-141.5 250t-197.5 88q-113 0 -199 -91zM1004.5 1747q111.5 -86 242.5 -141l-10 -31q-133 25 -263 61.5t-206 71.5q-63 -35 -171 -72t-216 -61l-10 31q131 55 242.5 141t176.5 178h37q66 -92 177.5 -178z" />
<glyph unicode="&#xd5;" horiz-adv-x="1624" d="M1193 1391q163 -88 253 -255t90 -399q0 -225 -92 -399t-257 -270.5t-376 -96.5q-217 0 -380 88t-253 255t-90 399q0 225 92 399t257 270.5t376 96.5q217 0 380 -88zM606 1351q-86 -91 -132 -255t-46 -375q0 -213 52 -375t141.5 -250t197.5 -88q113 0 199 91t132 255 t46 375q0 213 -52 375t-141.5 250t-197.5 88q-113 0 -199 -91zM748.5 1871.5q52.5 -20.5 115.5 -56.5q57 -35 100 -51.5t95 -16.5q109 0 170 111l28 -11q-27 -135 -100.5 -204.5t-171.5 -69.5q-68 0 -118 19.5t-116 58.5q-59 35 -103 51t-95 16q-104 0 -170 -112l-29 10 q29 135 103.5 205.5t170.5 70.5q68 0 120.5 -20.5z" />
<glyph unicode="&#xd6;" horiz-adv-x="1624" d="M1193 1391q163 -88 253 -255t90 -399q0 -225 -92 -399t-257 -270.5t-376 -96.5q-217 0 -380 88t-253 255t-90 399q0 225 92 399t257 270.5t376 96.5q217 0 380 -88zM606 1351q-86 -91 -132 -255t-46 -375q0 -213 52 -375t141.5 -250t197.5 -88q113 0 199 91t132 255 t46 375q0 213 -52 375t-141.5 250t-197.5 88q-113 0 -199 -91zM672 1831q47 -47 47 -109q0 -61 -47 -107t-109 -46q-63 0 -108 45t-45 108q0 61 46 108.5t107 47.5q62 0 109 -47zM1162 1831q46 -47 46 -109q0 -63 -46 -108t-107 -45q-63 0 -109.5 45t-46.5 108 q0 61 46 108.5t110 47.5q61 0 107 -47z" />
<glyph unicode="&#xd7;" horiz-adv-x="1009" d="M508 772l354 354l45 -45l-354 -352l354 -354l-45 -45l-354 354l-356 -356l-46 45l357 354l-359 358l46 45z" />
<glyph unicode="&#xd8;" horiz-adv-x="1624" d="M1461 1103q75 -157 75 -366q0 -225 -92 -399t-257 -270.5t-376 -96.5q-242 0 -416 109l-170 -242l-43 29l170 242q-127 96 -195.5 249.5t-68.5 354.5q0 225 92 399t257 270.5t376 96.5q225 0 397 -99l148 215l39 -26l-146 -215q135 -94 210 -251zM606 1351 q-86 -91 -132 -255t-46 -375q0 -248 72 -430l594 934q-53 104 -128 160.5t-161 56.5q-113 0 -199 -91zM1018 99q86 91 132 255t46 375q0 260 -78 445l-594 -938q53 -109 130 -168.5t165 -59.5q113 0 199 91z" />
<glyph unicode="&#xd9;" horiz-adv-x="1411" d="M1374 1409q-68 -10 -99.5 -34.5t-42.5 -78t-11 -157.5v-543q0 -293 -84 -434q-55 -90 -160 -140.5t-256 -50.5q-238 0 -369 103q-94 76 -126.5 191.5t-32.5 324.5v643q0 78 -11.5 112.5t-43.5 47t-99 16.5v41q104 -6 319 -6q213 0 326 6v-41q-74 -4 -107.5 -16.5t-46 -47 t-12.5 -112.5v-772q0 -215 62.5 -316.5t220.5 -101.5q205 0 289 138t84 392v541q0 119 -14.5 176.5t-55.5 83t-129 35.5v41q78 -6 221 -6q115 0 178 6v-41zM593.5 1870.5q26.5 -23.5 71.5 -70.5q102 -111 203 -194l-14 -25q-98 37 -175 57.5t-92 24.5q-47 10 -88 23.5 t-71 29.5q-33 18 -51.5 46t-18.5 59q0 27 12 47q14 29 42 45t61 16q35 0 63 -16q31 -19 57.5 -42.5z" />
<glyph unicode="&#xda;" horiz-adv-x="1411" d="M1374 1409q-68 -10 -99.5 -34.5t-42.5 -78t-11 -157.5v-543q0 -293 -84 -434q-55 -90 -160 -140.5t-256 -50.5q-238 0 -369 103q-94 76 -126.5 191.5t-32.5 324.5v643q0 78 -11.5 112.5t-43.5 47t-99 16.5v41q104 -6 319 -6q213 0 326 6v-41q-74 -4 -107.5 -16.5t-46 -47 t-12.5 -112.5v-772q0 -215 62.5 -316.5t220.5 -101.5q205 0 289 138t84 392v541q0 119 -14.5 176.5t-55.5 83t-129 35.5v41q78 -6 221 -6q115 0 178 6v-41zM976 1929q33 0 61 -16.5t42 -44.5q12 -20 12 -47q0 -31 -18.5 -58.5t-50.5 -46.5q-31 -16 -72 -29.5t-88 -23.5 q-14 -4 -91 -24.5t-175 -57.5l-15 25q100 84 203 194q45 47 71.5 70.5t57.5 42.5q28 16 63 16z" />
<glyph unicode="&#xdb;" horiz-adv-x="1411" d="M1374 1409q-68 -10 -99.5 -34.5t-42.5 -78t-11 -157.5v-543q0 -293 -84 -434q-55 -90 -160 -140.5t-256 -50.5q-238 0 -369 103q-94 76 -126.5 191.5t-32.5 324.5v643q0 78 -11.5 112.5t-43.5 47t-99 16.5v41q104 -6 319 -6q213 0 326 6v-41q-74 -4 -107.5 -16.5t-46 -47 t-12.5 -112.5v-772q0 -215 62.5 -316.5t220.5 -101.5q205 0 289 138t84 392v541q0 119 -14.5 176.5t-55.5 83t-129 35.5v41q78 -6 221 -6q115 0 178 6v-41zM926.5 1747q111.5 -86 242.5 -141l-10 -31q-133 25 -263 61.5t-206 71.5q-63 -35 -171 -72t-216 -61l-10 31 q131 55 242.5 141t176.5 178h37q66 -92 177.5 -178z" />
<glyph unicode="&#xdc;" horiz-adv-x="1411" d="M1374 1409q-68 -10 -99.5 -34.5t-42.5 -78t-11 -157.5v-543q0 -293 -84 -434q-55 -90 -160 -140.5t-256 -50.5q-238 0 -369 103q-94 76 -126.5 191.5t-32.5 324.5v643q0 78 -11.5 112.5t-43.5 47t-99 16.5v41q104 -6 319 -6q213 0 326 6v-41q-74 -4 -107.5 -16.5t-46 -47 t-12.5 -112.5v-772q0 -215 62.5 -316.5t220.5 -101.5q205 0 289 138t84 392v541q0 119 -14.5 176.5t-55.5 83t-129 35.5v41q78 -6 221 -6q115 0 178 6v-41zM594 1831q47 -47 47 -109q0 -61 -47 -107t-109 -46q-63 0 -108 45t-45 108q0 61 46 108.5t107 47.5q62 0 109 -47z M1084 1831q46 -47 46 -109q0 -63 -46 -108t-107 -45q-63 0 -109.5 45t-46.5 108q0 61 46 108.5t110 47.5q61 0 107 -47z" />
<glyph unicode="&#xdd;" horiz-adv-x="1275" d="M1264 1452v-41q-94 -39 -197 -237l-242 -480v-477q0 -78 11.5 -112.5t42 -47t100.5 -16.5v-41q-111 6 -315 6q-219 0 -318 -6v41q68 4 99.5 16.5t43 47t11.5 112.5v346l-396 731q-63 115 -118 115v43q90 -10 241 -10q190 0 385 10v-43q-72 0 -113.5 -13.5t-41.5 -47.5 q0 -18 14 -45l311 -601l160 320q80 162 80 254q0 70 -44 100.5t-126 34.5v41q139 -6 256 -6q95 0 156 6zM921 1929q33 0 61 -16.5t42 -44.5q12 -20 12 -47q0 -31 -18.5 -58.5t-50.5 -46.5q-31 -16 -72 -29.5t-88 -23.5q-14 -4 -91 -24.5t-175 -57.5l-15 25q100 84 203 194 q45 47 71.5 70.5t57.5 42.5q28 16 63 16z" />
<glyph unicode="&#xde;" horiz-adv-x="1271" d="M549 299v-82q0 -78 11 -112.5t42 -47t100 -16.5v-41q-111 6 -309 6q-219 0 -323 -6v41q68 4 99.5 16.5t42.5 47t11 112.5v1016q0 78 -11 112.5t-43 47t-99 16.5v41q104 -6 323 -6q199 0 309 6v-41q-70 -4 -100.5 -16.5t-41.5 -47t-11 -112.5v-74q51 2 115 2 q283 0 425 -101.5t142 -291.5q0 -203 -140.5 -336t-472.5 -133h-69zM549 1122v-782h49q166 0 229.5 109.5t63.5 300.5q0 188 -64.5 280t-214.5 92h-63z" />
<glyph unicode="&#xdf;" horiz-adv-x="1345" d="M995.5 1518q112.5 -84 112.5 -220q0 -98 -62.5 -183t-162 -144.5t-209.5 -83.5q193 -27 331 -100.5t211.5 -181t73.5 -236.5q0 -123 -62.5 -213t-167 -137.5t-224.5 -47.5q-125 0 -207 51.5t-82 159.5q0 74 39 119t106 45q63 0 103.5 -39t40.5 -102q0 -61 -37 -106.5 t-92 -65.5q27 -27 79 -27q92 0 145.5 88t53.5 244q0 219 -98.5 347t-245.5 179q-41 -27 -72 -26q-16 0 -28.5 8t-12.5 24q0 18 12.5 28.5t34.5 10.5q31 0 68 -16q102 72 142 161t40 224q0 293 -182 293q-63 0 -102 -38t-57.5 -126t-18.5 -242v-1188q-117 29 -295 29 q-45 0 -131 -6v43q74 0 102.5 36t28.5 124v866q0 268 130 400.5t378 132.5q205 0 317.5 -84z" />
<glyph unicode="&#xe0;" horiz-adv-x="1060" d="M123.5 53.5q-64.5 67.5 -64.5 177.5q0 92 48.5 152.5t117 93.5t174.5 70q113 39 165 70.5t52 87.5v159q0 86 -39.5 134.5t-123.5 48.5q-98 0 -150 -50q57 -20 89 -61t32 -96q0 -70 -47 -111t-115 -41q-72 0 -110.5 45t-38.5 113q0 57 27.5 97t84.5 75q55 33 136 51 t178 18q100 0 173.5 -20t123.5 -70q45 -45 60 -110.5t15 -177.5v-557q0 -49 9.5 -70t35.5 -21q31 0 74 35l21 -35q-92 -76 -226 -75q-113 0 -157.5 45t-46.5 121q-102 -166 -302 -166q-131 0 -195.5 67.5zM616 201v420q-25 -41 -104 -91q-80 -51 -121 -102t-41 -147 q0 -84 35 -124t92 -40q80 0 139 84zM346 1700q27 0 53.5 -13.5t44.5 -35.5q23 -27 38.5 -58.5t41.5 -95.5q59 -152 115 -252l-22 -18q-94 88 -218 174q-39 29 -72.5 56.5t-56.5 53.5q-31 41 -30 82q0 49 37 80q28 27 69 27z" />
<glyph unicode="&#xe1;" horiz-adv-x="1060" d="M123.5 53.5q-64.5 67.5 -64.5 177.5q0 92 48.5 152.5t117 93.5t174.5 70q113 39 165 70.5t52 87.5v159q0 86 -39.5 134.5t-123.5 48.5q-98 0 -150 -50q57 -20 89 -61t32 -96q0 -70 -47 -111t-115 -41q-72 0 -110.5 45t-38.5 113q0 57 27.5 97t84.5 75q55 33 136 51 t178 18q100 0 173.5 -20t123.5 -70q45 -45 60 -110.5t15 -177.5v-557q0 -49 9.5 -70t35.5 -21q31 0 74 35l21 -35q-92 -76 -226 -75q-113 0 -157.5 45t-46.5 121q-102 -166 -302 -166q-131 0 -195.5 67.5zM616 201v420q-25 -41 -104 -91q-80 -51 -121 -102t-41 -147 q0 -84 35 -124t92 -40q80 0 139 84zM793 1595q0 -43 -31 -84q-23 -27 -56.5 -54t-72.5 -56q-123 -86 -217 -174l-23 18q55 100 115 252q27 63 42 95t38 59q39 49 96 49q43 0 72 -27q37 -27 37 -78z" />
<glyph unicode="&#xe2;" horiz-adv-x="1060" d="M123.5 53.5q-64.5 67.5 -64.5 177.5q0 92 48.5 152.5t117 93.5t174.5 70q113 39 165 70.5t52 87.5v159q0 86 -39.5 134.5t-123.5 48.5q-98 0 -150 -50q57 -20 89 -61t32 -96q0 -70 -47 -111t-115 -41q-72 0 -110.5 45t-38.5 113q0 57 27.5 97t84.5 75q55 33 136 51 t178 18q100 0 173.5 -20t123.5 -70q45 -45 60 -110.5t15 -177.5v-557q0 -49 9.5 -70t35.5 -21q31 0 74 35l21 -35q-92 -76 -226 -75q-113 0 -157.5 45t-46.5 121q-102 -166 -302 -166q-131 0 -195.5 67.5zM616 201v420q-25 -41 -104 -91q-80 -51 -121 -102t-41 -147 q0 -84 35 -124t92 -40q80 0 139 84zM704.5 1455.5q98.5 -109.5 212.5 -177.5l-16 -29q-119 29 -230.5 71t-179.5 85q-55 -43 -144 -86t-183 -70l-17 29q115 68 212.5 175.5t154.5 225.5h37q55 -114 153.5 -223.5z" />
<glyph unicode="&#xe3;" horiz-adv-x="1060" d="M123.5 53.5q-64.5 67.5 -64.5 177.5q0 92 48.5 152.5t117 93.5t174.5 70q113 39 165 70.5t52 87.5v159q0 86 -39.5 134.5t-123.5 48.5q-98 0 -150 -50q57 -20 89 -61t32 -96q0 -70 -47 -111t-115 -41q-72 0 -110.5 45t-38.5 113q0 57 27.5 97t84.5 75q55 33 136 51 t178 18q100 0 173.5 -20t123.5 -70q45 -45 60 -110.5t15 -177.5v-557q0 -49 9.5 -70t35.5 -21q31 0 74 35l21 -35q-92 -76 -226 -75q-113 0 -157.5 45t-46.5 121q-102 -166 -302 -166q-131 0 -195.5 67.5zM616 201v420q-25 -41 -104 -91q-80 -51 -121 -102t-41 -147 q0 -84 35 -124t92 -40q80 0 139 84zM479 1591.5q41 -18.5 92 -55.5q49 -33 80 -47t74 -14q92 0 158 108l28 -14q-33 -145 -100.5 -215t-153.5 -70q-57 0 -98 18.5t-98 55.5q-43 33 -76 48t-76 15q-90 0 -157 -110l-29 14q33 145 101.5 215t154.5 70q59 0 100 -18.5z" />
<glyph unicode="&#xe4;" horiz-adv-x="1060" d="M123.5 53.5q-64.5 67.5 -64.5 177.5q0 92 48.5 152.5t117 93.5t174.5 70q113 39 165 70.5t52 87.5v159q0 86 -39.5 134.5t-123.5 48.5q-98 0 -150 -50q57 -20 89 -61t32 -96q0 -70 -47 -111t-115 -41q-72 0 -110.5 45t-38.5 113q0 57 27.5 97t84.5 75q55 33 136 51 t178 18q100 0 173.5 -20t123.5 -70q45 -45 60 -110.5t15 -177.5v-557q0 -49 9.5 -70t35.5 -21q31 0 74 35l21 -35q-92 -76 -226 -75q-113 0 -157.5 45t-46.5 121q-102 -166 -302 -166q-131 0 -195.5 67.5zM616 201v420q-25 -41 -104 -91q-80 -51 -121 -102t-41 -147 q0 -84 35 -124t92 -40q80 0 139 84zM410 1510q47 -46 47 -107q0 -63 -47 -108.5t-109 -45.5q-63 0 -108 45t-45 109q0 61 45 107t108 46q62 0 109 -46zM876 1510q46 -46 46 -107q0 -63 -46 -108.5t-108 -45.5q-66 0 -111 45t-45 109q0 61 46.5 107t109.5 46q62 0 108 -46z " />
<glyph unicode="&#xe5;" horiz-adv-x="1060" d="M123.5 53.5q-64.5 67.5 -64.5 177.5q0 92 48.5 152.5t117 93.5t174.5 70q113 39 165 70.5t52 87.5v159q0 86 -39.5 134.5t-123.5 48.5q-98 0 -150 -50q57 -20 89 -61t32 -96q0 -70 -47 -111t-115 -41q-72 0 -110.5 45t-38.5 113q0 57 27.5 97t84.5 75q55 33 136 51 t178 18q100 0 173.5 -20t123.5 -70q45 -45 60 -110.5t15 -177.5v-557q0 -49 9.5 -70t35.5 -21q31 0 74 35l21 -35q-92 -76 -226 -75q-113 0 -157.5 45t-46.5 121q-102 -166 -302 -166q-131 0 -195.5 67.5zM616 201v420q-25 -41 -104 -91q-80 -51 -121 -102t-41 -147 q0 -84 35 -124t92 -40q80 0 139 84zM690.5 1578q65.5 -54 65.5 -144t-65.5 -145.5t-157.5 -55.5t-157 55t-65 146q0 90 65 144t157 54t157.5 -54zM419 1546q-50 -43 -50 -114q0 -74 50 -115t114 -41q66 0 116 41t50 115q0 72 -50.5 114.5t-115.5 42.5q-64 0 -114 -43z" />
<glyph unicode="&#xe6;" horiz-adv-x="1517" d="M1401 303l37 -12q-39 -133 -136.5 -226.5t-244.5 -93.5q-135 0 -235.5 60.5t-153.5 185.5q-72 -129 -158 -180t-191 -51q-131 0 -195.5 67.5t-64.5 177.5q0 92 48.5 152.5t117 93.5t174.5 70q113 39 165 70.5t52 87.5v159q0 86 -39.5 134.5t-123.5 48.5q-98 0 -150 -50 q57 -20 89 -61t32 -96q0 -70 -47 -111t-115 -41q-72 0 -110.5 45t-38.5 113q0 57 27.5 97t84.5 75q55 33 136 51t178 18q195 0 282 -77q109 78 264 77q365 0 365 -454h-532q-2 -31 -3 -96q0 -135 35 -225.5t90.5 -131.5t118.5 -41q150 0 242 164zM966 953q-42 -91 -53 -281 h279q4 160 -26.5 266t-92.5 106q-65 0 -107 -91zM651 266q-35 109 -35 252q0 57 7 107q-18 -27 -43 -46.5t-66 -46.5q-80 -53 -122 -105t-42 -146q0 -84 34 -124t91 -40q51 0 94 32.5t82 108.5v8z" />
<glyph unicode="&#xe7;" horiz-adv-x="1015" d="M725 1071q68 -16 113 -45q53 -33 82.5 -83t29.5 -109q0 -72 -45 -118t-117 -46t-114.5 41t-42.5 110q0 61 39 106.5t96 61.5q-16 23 -50 36t-73 13q-123 0 -191.5 -134t-68.5 -351q0 -219 78 -315.5t194 -96.5q70 0 140.5 37t128.5 129l34 -12q-41 -133 -143 -228.5 t-264 -95.5q-211 0 -344 139.5t-133 413.5q0 180 65.5 307t180 191.5t262.5 64.5q75 0 143 -16zM493 -133q63 25 145 24q68 0 105 -29.5t37 -80.5q0 -82 -82 -124t-205 -42q-109 0 -178 25l10 36q66 -8 90 -8q59 0 104.5 20.5t45.5 63.5q0 53 -68 53q-47 0 -82 -14l66 213 h55z" />
<glyph unicode="&#xe8;" horiz-adv-x="1032" d="M922 303l36 -12q-41 -133 -146 -226.5t-263 -93.5q-217 0 -345 138.5t-128 408.5q0 276 137 422.5t365 146.5q385 0 385 -454h-576q-2 -31 -2 -96q0 -135 38 -225.5t98.5 -131.5t129.5 -41q169 0 271 164zM443.5 953q-48.5 -91 -60.5 -281h322q4 162 -32 267t-108 105 q-73 0 -121.5 -91zM379 1700q27 0 53.5 -13.5t44.5 -35.5q23 -27 38.5 -58.5t41.5 -95.5q59 -152 115 -252l-22 -18q-94 88 -218 174q-39 29 -72.5 56.5t-56.5 53.5q-31 41 -30 82q0 49 37 80q28 27 69 27z" />
<glyph unicode="&#xe9;" horiz-adv-x="1032" d="M922 303l36 -12q-41 -133 -146 -226.5t-263 -93.5q-217 0 -345 138.5t-128 408.5q0 276 137 422.5t365 146.5q385 0 385 -454h-576q-2 -31 -2 -96q0 -135 38 -225.5t98.5 -131.5t129.5 -41q169 0 271 164zM443.5 953q-48.5 -91 -60.5 -281h322q4 162 -32 267t-108 105 q-73 0 -121.5 -91zM826 1595q0 -43 -31 -84q-23 -27 -56.5 -54t-72.5 -56q-123 -86 -217 -174l-23 18q55 100 115 252q27 63 42 95t38 59q39 49 96 49q43 0 72 -27q37 -27 37 -78z" />
<glyph unicode="&#xea;" horiz-adv-x="1032" d="M922 303l36 -12q-41 -133 -146 -226.5t-263 -93.5q-217 0 -345 138.5t-128 408.5q0 276 137 422.5t365 146.5q385 0 385 -454h-576q-2 -31 -2 -96q0 -135 38 -225.5t98.5 -131.5t129.5 -41q169 0 271 164zM443.5 953q-48.5 -91 -60.5 -281h322q4 162 -32 267t-108 105 q-73 0 -121.5 -91zM737.5 1455.5q98.5 -109.5 212.5 -177.5l-16 -29q-119 29 -230.5 71t-179.5 85q-55 -43 -144 -86t-183 -70l-17 29q115 68 212.5 175.5t154.5 225.5h37q55 -114 153.5 -223.5z" />
<glyph unicode="&#xeb;" horiz-adv-x="1032" d="M922 303l36 -12q-41 -133 -146 -226.5t-263 -93.5q-217 0 -345 138.5t-128 408.5q0 276 137 422.5t365 146.5q385 0 385 -454h-576q-2 -31 -2 -96q0 -135 38 -225.5t98.5 -131.5t129.5 -41q169 0 271 164zM443.5 953q-48.5 -91 -60.5 -281h322q4 162 -32 267t-108 105 q-73 0 -121.5 -91zM443 1510q47 -46 47 -107q0 -63 -47 -108.5t-109 -45.5q-63 0 -108 45t-45 109q0 61 45 107t108 46q62 0 109 -46zM909 1510q46 -46 46 -107q0 -63 -46 -108.5t-108 -45.5q-66 0 -111 45t-45 109q0 61 46.5 107t109.5 46q62 0 108 -46z" />
<glyph unicode="&#xec;" horiz-adv-x="645" d="M475 190q0 -84 30 -115.5t101 -31.5v-43q-205 8 -272 8q-63 0 -285 -8v43q74 0 102.5 31.5t28.5 115.5v646q0 94 -28.5 137t-102.5 43v43q66 -6 127 -6q182 0 299 28v-891zM135 1700q27 0 53.5 -13.5t44.5 -35.5q23 -27 38.5 -58.5t41.5 -95.5q59 -152 115 -252l-22 -18 q-94 88 -218 174q-39 29 -72.5 56.5t-56.5 53.5q-31 41 -30 82q0 49 37 80q28 27 69 27z" />
<glyph unicode="&#xed;" horiz-adv-x="645" d="M475 190q0 -84 30 -115.5t101 -31.5v-43q-205 8 -272 8q-63 0 -285 -8v43q74 0 102.5 31.5t28.5 115.5v646q0 94 -28.5 137t-102.5 43v43q66 -6 127 -6q182 0 299 28v-891zM582 1595q0 -43 -31 -84q-23 -27 -56.5 -54t-72.5 -56q-123 -86 -217 -174l-23 18 q55 100 115 252q27 63 42 95t38 59q39 49 96 49q43 0 72 -27q37 -27 37 -78z" />
<glyph unicode="&#xee;" horiz-adv-x="645" d="M475 190q0 -84 30 -115.5t101 -31.5v-43q-205 8 -272 8q-63 0 -285 -8v43q74 0 102.5 31.5t28.5 115.5v646q0 94 -28.5 137t-102.5 43v43q66 -6 127 -6q182 0 299 28v-891zM493.5 1455.5q98.5 -109.5 212.5 -177.5l-16 -29q-119 29 -230.5 71t-179.5 85q-55 -43 -144 -86 t-183 -70l-17 29q115 68 212.5 175.5t154.5 225.5h37q55 -114 153.5 -223.5z" />
<glyph unicode="&#xef;" horiz-adv-x="645" d="M475 190q0 -84 30 -115.5t101 -31.5v-43q-205 8 -272 8q-63 0 -285 -8v43q74 0 102.5 31.5t28.5 115.5v646q0 94 -28.5 137t-102.5 43v43q66 -6 127 -6q182 0 299 28v-891zM199 1510q47 -46 47 -107q0 -63 -47 -108.5t-109 -45.5q-63 0 -108 45t-45 109q0 61 45 107 t108 46q62 0 109 -46zM665 1510q46 -46 46 -107q0 -63 -46 -108.5t-108 -45.5q-66 0 -111 45t-45 109q0 61 46.5 107t109.5 46q62 0 108 -46z" />
<glyph unicode="&#xf0;" horiz-adv-x="1161" d="M966.5 1072q108.5 -198 108.5 -449q0 -324 -137 -489t-363 -165q-233 0 -365 132t-132 413q0 182 59.5 311t165 195.5t240.5 66.5q115 0 180 -57q-51 193 -168 324l-328 -160l-18 37l317 153q-106 109 -262 183l17 35q199 -70 346 -168l293 143l18 -37l-272 -133 q192 -137 300.5 -335zM717 151.5q55 141.5 55 462.5q0 211 -37 371q-47 55 -131 55q-217 0 -217 -514q0 -260 51 -388t133 -128q91 0 146 141.5z" />
<glyph unicode="&#xf1;" horiz-adv-x="1257" d="M1036 1008q35 -39 49.5 -100.5t14.5 -166.5v-551q0 -84 29.5 -115.5t101.5 -31.5v-43q-205 8 -270 8q-61 0 -267 -8v43q61 0 86 31.5t25 115.5v637q0 84 -27.5 127t-99.5 43q-84 0 -143.5 -68.5t-59.5 -168.5v-570q0 -84 24.5 -115.5t86.5 -31.5v-43q-188 8 -254 8 q-61 0 -283 -8v43q74 0 102.5 31.5t28.5 115.5v646q0 94 -28.5 137t-102.5 43v43q66 -6 127 -6q182 0 299 28v-184q92 190 336 190q155 1 225 -79zM588 1591.5q41 -18.5 92 -55.5q49 -33 80 -47t74 -14q92 0 158 108l28 -14q-33 -145 -100.5 -215t-153.5 -70q-57 0 -98 18.5 t-98 55.5q-43 33 -76 48t-76 15q-90 0 -157 -110l-29 14q33 145 101.5 215t154.5 70q59 0 100 -18.5z" />
<glyph unicode="&#xf2;" horiz-adv-x="1157" d="M946 953q133 -134 133 -425t-133 -424t-368 -133q-233 0 -367.5 133.5t-134.5 423.5q0 291 134 425t368 134q235 0 368 -134zM437 919q-52 -128 -52 -391q0 -262 52 -389t141 -127q90 0 141 126t51 390t-52 391.5t-140 127.5q-89 0 -141 -128zM395 1700q27 0 53.5 -13.5 t44.5 -35.5q23 -27 38.5 -58.5t41.5 -95.5q59 -152 115 -252l-22 -18q-94 88 -218 174q-39 29 -72.5 56.5t-56.5 53.5q-31 41 -30 82q0 49 37 80q28 27 69 27z" />
<glyph unicode="&#xf3;" horiz-adv-x="1157" d="M946 953q133 -134 133 -425t-133 -424t-368 -133q-233 0 -367.5 133.5t-134.5 423.5q0 291 134 425t368 134q235 0 368 -134zM437 919q-52 -128 -52 -391q0 -262 52 -389t141 -127q90 0 141 126t51 390t-52 391.5t-140 127.5q-89 0 -141 -128zM842 1595q0 -43 -31 -84 q-23 -27 -56.5 -54t-72.5 -56q-123 -86 -217 -174l-23 18q55 100 115 252q27 63 42 95t38 59q39 49 96 49q43 0 72 -27q37 -27 37 -78z" />
<glyph unicode="&#xf4;" horiz-adv-x="1157" d="M946 953q133 -134 133 -425t-133 -424t-368 -133q-233 0 -367.5 133.5t-134.5 423.5q0 291 134 425t368 134q235 0 368 -134zM437 919q-52 -128 -52 -391q0 -262 52 -389t141 -127q90 0 141 126t51 390t-52 391.5t-140 127.5q-89 0 -141 -128zM753.5 1455.5 q98.5 -109.5 212.5 -177.5l-16 -29q-119 29 -230.5 71t-179.5 85q-55 -43 -144 -86t-183 -70l-17 29q115 68 212.5 175.5t154.5 225.5h37q55 -114 153.5 -223.5z" />
<glyph unicode="&#xf5;" horiz-adv-x="1157" d="M946 953q133 -134 133 -425t-133 -424t-368 -133q-233 0 -367.5 133.5t-134.5 423.5q0 291 134 425t368 134q235 0 368 -134zM437 919q-52 -128 -52 -391q0 -262 52 -389t141 -127q90 0 141 126t51 390t-52 391.5t-140 127.5q-89 0 -141 -128zM528 1591.5 q41 -18.5 92 -55.5q49 -33 80 -47t74 -14q92 0 158 108l28 -14q-33 -145 -100.5 -215t-153.5 -70q-57 0 -98 18.5t-98 55.5q-43 33 -76 48t-76 15q-90 0 -157 -110l-29 14q33 145 101.5 215t154.5 70q59 0 100 -18.5z" />
<glyph unicode="&#xf6;" horiz-adv-x="1157" d="M946 953q133 -134 133 -425t-133 -424t-368 -133q-233 0 -367.5 133.5t-134.5 423.5q0 291 134 425t368 134q235 0 368 -134zM437 919q-52 -128 -52 -391q0 -262 52 -389t141 -127q90 0 141 126t51 390t-52 391.5t-140 127.5q-89 0 -141 -128zM459 1510q47 -46 47 -107 q0 -63 -47 -108.5t-109 -45.5q-63 0 -108 45t-45 109q0 61 45 107t108 46q62 0 109 -46zM925 1510q46 -46 46 -107q0 -63 -46 -108.5t-108 -45.5q-66 0 -111 45t-45 109q0 61 46.5 107t109.5 46q62 0 108 -46z" />
<glyph unicode="&#xf7;" horiz-adv-x="1296" d="M730 1102q34 -33 34 -80t-34 -80t-81 -33t-79.5 33t-32.5 80t33.5 80t78.5 33q47 0 81 -33zM1165 696h-1026v62h1026v-62zM730 512q34 -33 34 -80t-34 -81t-81 -34t-79.5 34t-32.5 81t33.5 80t78.5 33q47 0 81 -33z" />
<glyph unicode="&#xf8;" horiz-adv-x="1157" d="M1079 528q0 -291 -133 -424t-368 -133q-180 0 -297 76l-136 -197l-41 27l138 199q-166 137 -166 452q0 291 134 425t368 134q182 0 296 -75l138 196l39 -26l-138 -199q166 -140 166 -455zM437 919q-52 -128 -52 -391q0 -141 16 -249l338 573q-25 98 -66.5 146.5 t-94.5 48.5q-89 0 -141 -128zM719 138q51 126 51 390q0 143 -16 254l-338 -577q51 -193 162 -193q90 0 141 126z" />
<glyph unicode="&#xf9;" horiz-adv-x="1241" d="M1069 223q0 -94 29.5 -137t101.5 -43v-43q-63 6 -127 6q-178 0 -299 -29v185q-94 -190 -330 -191q-154 0 -223 80q-33 39 -48 101.5t-15 164.5v519q0 94 -30 137t-101 43v43q63 -6 127 -6q178 0 299 28v-848q0 -86 25.5 -129t96.5 -43q82 0 140.5 69t58.5 169v537 q0 94 -29.5 137t-101.5 43v43q66 -6 127 -6q178 0 299 28v-858zM405 1700q27 0 53.5 -13.5t44.5 -35.5q23 -27 38.5 -58.5t41.5 -95.5q59 -152 115 -252l-22 -18q-94 88 -218 174q-39 29 -72.5 56.5t-56.5 53.5q-31 41 -30 82q0 49 37 80q28 27 69 27z" />
<glyph unicode="&#xfa;" horiz-adv-x="1241" d="M1069 223q0 -94 29.5 -137t101.5 -43v-43q-63 6 -127 6q-178 0 -299 -29v185q-94 -190 -330 -191q-154 0 -223 80q-33 39 -48 101.5t-15 164.5v519q0 94 -30 137t-101 43v43q63 -6 127 -6q178 0 299 28v-848q0 -86 25.5 -129t96.5 -43q82 0 140.5 69t58.5 169v537 q0 94 -29.5 137t-101.5 43v43q66 -6 127 -6q178 0 299 28v-858zM852 1595q0 -43 -31 -84q-23 -27 -56.5 -54t-72.5 -56q-123 -86 -217 -174l-23 18q55 100 115 252q27 63 42 95t38 59q39 49 96 49q43 0 72 -27q37 -27 37 -78z" />
<glyph unicode="&#xfb;" horiz-adv-x="1241" d="M1069 223q0 -94 29.5 -137t101.5 -43v-43q-63 6 -127 6q-178 0 -299 -29v185q-94 -190 -330 -191q-154 0 -223 80q-33 39 -48 101.5t-15 164.5v519q0 94 -30 137t-101 43v43q63 -6 127 -6q178 0 299 28v-848q0 -86 25.5 -129t96.5 -43q82 0 140.5 69t58.5 169v537 q0 94 -29.5 137t-101.5 43v43q66 -6 127 -6q178 0 299 28v-858zM764.5 1455.5q98.5 -109.5 212.5 -177.5l-16 -29q-119 29 -230.5 71t-179.5 85q-55 -43 -144 -86t-183 -70l-17 29q115 68 212.5 175.5t154.5 225.5h37q55 -114 153.5 -223.5z" />
<glyph unicode="&#xfc;" horiz-adv-x="1241" d="M1069 223q0 -94 29.5 -137t101.5 -43v-43q-63 6 -127 6q-178 0 -299 -29v185q-94 -190 -330 -191q-154 0 -223 80q-33 39 -48 101.5t-15 164.5v519q0 94 -30 137t-101 43v43q63 -6 127 -6q178 0 299 28v-848q0 -86 25.5 -129t96.5 -43q82 0 140.5 69t58.5 169v537 q0 94 -29.5 137t-101.5 43v43q66 -6 127 -6q178 0 299 28v-858zM469 1510q47 -46 47 -107q0 -63 -47 -108.5t-109 -45.5q-63 0 -108 45t-45 109q0 61 45 107t108 46q62 0 109 -46zM935 1510q46 -46 46 -107q0 -63 -46 -108.5t-108 -45.5q-66 0 -111 45t-45 109 q0 61 46.5 107t109.5 46q62 0 108 -46z" />
<glyph unicode="&#xfd;" horiz-adv-x="1062" d="M1051 1059v-41q-43 -12 -77 -52t-65 -124l-366 -1030q-41 -106 -90 -146q-59 -51 -179 -51q-86 0 -154.5 42t-68.5 122q0 63 45 101t119 38q70 0 112 -34t42 -95q0 -43 -27 -79t-76 -54q14 -2 47 -2q127 0 187 162l32 98l-434 987q-33 70 -63.5 92.5t-63.5 22.5v43 q135 -12 281 -12q121 0 285 12v-43q-66 0 -97.5 -9.5t-31.5 -48.5q0 -23 14 -57l250 -604l141 393q33 96 33 164q0 150 -152 164v41q96 -6 199 -6t158 6zM789 1595q0 -43 -31 -84q-23 -27 -56.5 -54t-72.5 -56q-123 -86 -217 -174l-23 18q55 100 115 252q27 63 42 95t38 59 q39 49 96 49q43 0 72 -27q37 -27 37 -78z" />
<glyph unicode="&#xfe;" horiz-adv-x="1196" d="M1016.5 955q101.5 -132 101.5 -377q0 -293 -127 -450t-346 -157q-133 0 -211 68v-207q0 -90 46 -125t138 -35v-43l-55 2q-221 6 -289 7q-53 0 -258 -9v43q70 0 96.5 30t26.5 110v1544q0 94 -28.5 137t-102.5 43v43q66 -6 127 -6q182 0 299 29v-713q43 96 126 147t192 51 q163 0 264.5 -132zM751.5 158q57.5 131 57.5 379q0 250 -45 356t-131 106q-70 0 -125 -48t-74 -132v-735q45 -57 131 -57q129 0 186.5 131z" />
<glyph unicode="&#xff;" horiz-adv-x="1062" d="M1051 1059v-41q-43 -12 -77 -52t-65 -124l-366 -1030q-41 -106 -90 -146q-59 -51 -179 -51q-86 0 -154.5 42t-68.5 122q0 63 45 101t119 38q70 0 112 -34t42 -95q0 -43 -27 -79t-76 -54q14 -2 47 -2q127 0 187 162l32 98l-434 987q-33 70 -63.5 92.5t-63.5 22.5v43 q135 -12 281 -12q121 0 285 12v-43q-66 0 -97.5 -9.5t-31.5 -48.5q0 -23 14 -57l250 -604l141 393q33 96 33 164q0 150 -152 164v41q96 -6 199 -6t158 6zM406 1510q47 -46 47 -107q0 -63 -47 -108.5t-109 -45.5q-63 0 -108 45t-45 109q0 61 45 107t108 46q62 0 109 -46z M872 1510q46 -46 46 -107q0 -63 -46 -108.5t-108 -45.5q-66 0 -111 45t-45 109q0 61 46.5 107t109.5 46q62 0 108 -46z" />
<glyph unicode="&#x131;" horiz-adv-x="645" d="M475 190q0 -84 30 -115.5t101 -31.5v-43q-205 8 -272 8q-63 0 -285 -8v43q74 0 102.5 31.5t28.5 115.5v646q0 94 -28.5 137t-102.5 43v43q66 -6 127 -6q182 0 299 28v-891z" />
<glyph unicode="&#x152;" horiz-adv-x="2037" d="M1946 0q-133 6 -453 6q-324 0 -520 -2q-82 -33 -174 -33q-213 0 -374 88t-249 255t-88 399q0 225 91 399t253 270.5t369 96.5q90 0 178 -33q197 -2 514 -2q291 0 412 6q-14 -156 -15 -279q0 -90 6 -139h-47q-27 205 -93 288t-193 83h-43q-68 0 -98.5 -11.5t-43 -47 t-12.5 -111.5v-483h84q72 0 110.5 38.5t50 73.5t34.5 129h47q-6 -78 -6 -174v-88q0 -92 12 -262h-47q-14 78 -30.5 126t-56.5 82t-114 34h-84v-492q0 -76 12.5 -111.5t43 -47t98.5 -11.5h59q131 0 210 94.5t101 317.5h47q-6 -68 -6 -172q1 -156 15 -287zM1040 1245 q0 104 -74.5 150.5t-172.5 46.5q-111 0 -193 -91t-127 -255t-45 -375q0 -213 50 -375t136 -250t193 -88q86 0 159.5 47t73.5 138v1052z" />
<glyph unicode="&#x153;" horiz-adv-x="1667" d="M1554 303l39 -12q-41 -133 -137 -226.5t-242 -93.5q-104 0 -187 43t-138 127q-104 -170 -330 -170q-225 0 -353 133.5t-128 423.5q0 291 128 425t353 134q227 0 332 -176q55 86 140 131t188 45q379 0 378 -454h-542q-2 -31 -2 -96q0 -135 37.5 -225.5t98 -131.5 t130.5 -41q151 0 235 164zM693 138q50 126 50 388q0 264 -50 392.5t-134 128.5q-80 0 -126 -127t-46 -392q0 -264 46 -390t126 -126q84 0 134 126zM1102 953q-43 -91 -53 -281h290q2 162 -30.5 267t-100.5 105q-63 0 -106 -91z" />
<glyph unicode="&#x178;" horiz-adv-x="1275" d="M1264 1452v-41q-94 -39 -197 -237l-242 -480v-477q0 -78 11.5 -112.5t42 -47t100.5 -16.5v-41q-111 6 -315 6q-219 0 -318 -6v41q68 4 99.5 16.5t43 47t11.5 112.5v346l-396 731q-63 115 -118 115v43q90 -10 241 -10q190 0 385 10v-43q-72 0 -113.5 -13.5t-41.5 -47.5 q0 -18 14 -45l311 -601l160 320q80 162 80 254q0 70 -44 100.5t-126 34.5v41q139 -6 256 -6q95 0 156 6zM539 1831q47 -47 47 -109q0 -61 -47 -107t-109 -46q-63 0 -108 45t-45 108q0 61 46 108.5t107 47.5q62 0 109 -47zM1029 1831q46 -47 46 -109q0 -63 -46 -108t-107 -45 q-63 0 -109.5 45t-46.5 108q0 61 46 108.5t110 47.5q61 0 107 -47z" />
<glyph unicode="&#x237;" horiz-adv-x="608" d="M-47 -348q102 4 160.5 82t58.5 229v873q0 94 -29.5 137t-101.5 43v43q66 -6 127 -6q178 0 299 28v-888q0 -172 -34 -283t-114 -184q-121 -111 -366 -111v37z" />
<glyph unicode="&#x2c6;" horiz-adv-x="974" d="M659.5 1455.5q98.5 -109.5 212.5 -177.5l-16 -29q-119 29 -230.5 71t-179.5 85q-55 -43 -144 -86t-183 -70l-17 29q115 68 212.5 175.5t154.5 225.5h37q55 -114 153.5 -223.5z" />
<glyph unicode="&#x2dc;" horiz-adv-x="1114" d="M403 1591.5q41 -18.5 92 -55.5q49 -33 80 -47t74 -14q92 0 158 108l28 -14q-33 -145 -100.5 -215t-153.5 -70q-57 0 -98 18.5t-98 55.5q-43 33 -76 48t-76 15q-90 0 -157 -110l-29 14q33 145 101.5 215t154.5 70q59 0 100 -18.5z" />
<glyph unicode="&#x300;" d="M-334 1700q27 0 53.5 -13.5t44.5 -35.5q23 -27 38.5 -58.5t41.5 -95.5q59 -152 115 -252l-22 -18q-94 88 -218 174q-39 29 -72.5 56.5t-56.5 53.5q-31 41 -30 82q0 49 37 80q28 27 69 27z" />
<glyph unicode="&#x301;" d="M-16 1595q0 -43 -31 -84q-23 -27 -56.5 -54t-72.5 -56q-123 -86 -217 -174l-23 18q55 100 115 252q27 63 42 95t38 59q39 49 96 49q43 0 72 -27q37 -27 37 -78z" />
<glyph unicode="&#x302;" d="M-239.5 1455.5q98.5 -109.5 212.5 -177.5l-16 -29q-119 29 -230.5 71t-179.5 85q-55 -43 -144 -86t-183 -70l-17 29q115 68 212.5 175.5t154.5 225.5h37q55 -114 153.5 -223.5z" />
<glyph unicode="&#x303;" d="M-459 1591.5q41 -18.5 92 -55.5q49 -33 80 -47t74 -14q92 0 158 108l28 -14q-33 -145 -100.5 -215t-153.5 -70q-57 0 -98 18.5t-98 55.5q-43 33 -76 48t-76 15q-90 0 -157 -110l-29 14q33 145 101.5 215t154.5 70q59 0 100 -18.5z" />
<glyph unicode="&#x304;" d="M-27 1407h-688v51h688v-51z" />
<glyph unicode="&#x307;" d="M-66.5 1545q50.5 -42 50.5 -115q0 -74 -50.5 -116t-136.5 -42t-136 42t-50 116t50 115.5t136 41.5t136.5 -42z" />
<glyph unicode="&#x308;" d="M-524 1510q47 -46 47 -107q0 -63 -47 -108.5t-109 -45.5q-63 0 -108 45t-45 109q0 61 45 107t108 46q62 0 109 -46zM-58 1510q46 -46 46 -107q0 -63 -46 -108.5t-108 -45.5q-66 0 -111 45t-45 109q0 61 46.5 107t109.5 46q62 0 108 -46z" />
<glyph unicode="&#x30a;" d="M-112.5 1578q65.5 -54 65.5 -144t-65.5 -145.5t-157.5 -55.5t-157 55t-65 146q0 90 65 144t157 54t157.5 -54zM-384 1546q-50 -43 -50 -114q0 -74 50 -115t114 -41q66 0 116 41t50 115q0 72 -50.5 114.5t-115.5 42.5q-64 0 -114 -43z" />
<glyph unicode="&#x327;" d="M-295 -133q63 25 145 24q68 0 105 -29.5t37 -80.5q0 -82 -82 -124t-205 -42q-109 0 -178 25l10 36q66 -8 90 -8q59 0 104.5 20.5t45.5 63.5q0 53 -68 53q-47 0 -82 -14l66 213h55z" />
<glyph unicode="&#x335;" d="M-41 1245h-786v41h786v-41z" />
<glyph unicode="&#x2000;" horiz-adv-x="964" />
<glyph unicode="&#x2001;" horiz-adv-x="1929" />
<glyph unicode="&#x2002;" horiz-adv-x="964" />
<glyph unicode="&#x2003;" horiz-adv-x="1929" />
<glyph unicode="&#x2004;" horiz-adv-x="643" />
<glyph unicode="&#x2005;" horiz-adv-x="482" />
<glyph unicode="&#x2006;" horiz-adv-x="321" />
<glyph unicode="&#x2007;" horiz-adv-x="321" />
<glyph unicode="&#x2008;" horiz-adv-x="241" />
<glyph unicode="&#x2009;" horiz-adv-x="385" />
<glyph unicode="&#x200a;" horiz-adv-x="107" />
<glyph unicode="&#x2010;" horiz-adv-x="985" d="M862 469h-739v170h739v-170z" />
<glyph unicode="&#x2011;" horiz-adv-x="985" d="M862 469h-739v170h739v-170z" />
<glyph unicode="&#x2012;" horiz-adv-x="985" d="M862 469h-739v170h739v-170z" />
<glyph unicode="&#x2013;" horiz-adv-x="1232" d="M1118 453h-1003v202h1003v-202z" />
<glyph unicode="&#x2014;" horiz-adv-x="1832" d="M1718 453h-1603v202h1603v-202z" />
<glyph unicode="&#x2018;" horiz-adv-x="528" d="M135 991q-20 31 -32.5 76t-12.5 94q0 106 54.5 192t160.5 136l19 -37q-59 -25 -103.5 -76t-52.5 -104q-6 -25 -6 -48q0 -20 6 -38q45 49 119 49q72 0 117 -42t45 -116q0 -70 -47.5 -114t-120.5 -44q-101 0 -146 72z" />
<glyph unicode="&#x2019;" horiz-adv-x="518" d="M389 1407q20 -31 32.5 -76t12.5 -94q0 -106 -54 -192.5t-161 -135.5l-18 37q59 25 103 76t52 104q6 25 6 48q0 20 -6 38q-45 -49 -118 -49q-72 0 -117 42t-45 116q0 70 47 114t121 44q100 0 145 -72z" />
<glyph unicode="&#x201a;" horiz-adv-x="555" d="M414 215q20 -31 32.5 -76t12.5 -94q0 -106 -54.5 -192t-160.5 -136l-19 37q59 25 103.5 76t52.5 104q6 25 6 48q0 20 -6 38q-45 -49 -119 -49q-72 0 -117 42t-45 116q0 70 47.5 114t120.5 44q101 0 146 -72z" />
<glyph unicode="&#x201c;" horiz-adv-x="950" d="M557 991q-20 31 -32.5 76t-12.5 94q0 106 54.5 192t160.5 136l19 -37q-59 -25 -103.5 -76t-52.5 -104q-6 -25 -6 -48q0 -20 6 -38q45 49 119 49q72 0 117 -42t45 -116q0 -70 -47.5 -114t-120.5 -44q-101 0 -146 72zM135 991q-20 31 -32.5 76t-12.5 94q0 106 54.5 192 t160.5 136l19 -37q-59 -25 -103.5 -76t-52.5 -104q-6 -25 -6 -48q0 -20 6 -38q45 49 119 49q72 0 117 -42t45 -116q0 -70 -47 -114t-121 -44q-101 0 -146 72z" />
<glyph unicode="&#x201d;" horiz-adv-x="940" d="M389 1407q20 -31 32.5 -76t12.5 -94q0 -106 -54.5 -192t-160.5 -136l-19 37q59 25 103.5 76t52.5 104q6 25 6 48q0 20 -6 38q-45 -49 -119 -49q-72 0 -117 42t-45 116q0 70 47.5 114t120.5 44q101 0 146 -72zM811 1407q20 -31 32.5 -76t12.5 -94q0 -106 -54.5 -192 t-160.5 -136l-19 37q59 25 103.5 76t52.5 104q6 25 6 48q0 20 -6 38q-45 -49 -119 -49q-72 0 -117 42t-45 116q0 70 47 114t121 44q101 0 146 -72z" />
<glyph unicode="&#x201e;" horiz-adv-x="976" d="M414 215q20 -31 32.5 -76t12.5 -94q0 -106 -54.5 -192t-160.5 -136l-19 37q59 25 103.5 76t52.5 104q6 25 6 48q0 20 -6 38q-45 -49 -119 -49q-72 0 -117 42t-45 116q0 70 47.5 114t120.5 44q101 0 146 -72zM836 215q20 -31 32.5 -76t12.5 -94q0 -106 -54.5 -192 t-160.5 -136l-19 37q59 25 103.5 76t52.5 104q6 25 6 48q0 20 -6 38q-45 -49 -119 -49q-72 0 -117 42t-45 116q0 70 47 114t121 44q101 0 146 -72z" />
<glyph unicode="&#x2022;" horiz-adv-x="993" d="M670 850q80 -47 126 -126t46 -173t-46 -173t-126 -125t-174 -46t-173 46t-125 125t-46 173t46 173t124.5 126t173.5 47q94 0 174 -47z" />
<glyph unicode="&#x2026;" horiz-adv-x="1699" d="M403.5 245q47.5 -42 47.5 -116t-47.5 -116t-127.5 -42t-127 42t-47 116t47.5 116t126.5 42q80 0 127.5 -42zM978.5 245q47.5 -42 47.5 -116t-47.5 -116t-127.5 -42t-127 42t-47 116t47.5 116t126.5 42q80 0 127.5 -42zM1552.5 245q47.5 -42 47.5 -116t-47.5 -116 t-127.5 -42t-127 42t-47 116t47.5 116t126.5 42q80 0 127.5 -42z" />
<glyph unicode="&#x202f;" horiz-adv-x="385" />
<glyph unicode="&#x2039;" horiz-adv-x="741" d="M649 1079q-47 -158 -128 -309.5t-163 -237.5q82 -84 162 -238.5t129 -313.5l-31 -11q-127 176 -263 310.5t-302 236.5v27q164 102 300 237t265 312z" />
<glyph unicode="&#x203a;" horiz-adv-x="741" d="M389 780q135 -135 299 -237v-27q-164 -102 -300 -237.5t-263 -309.5l-31 11q47 160 127 310t162 236q-82 84 -161 238t-128 315l31 13q129 -177 264 -312z" />
<glyph unicode="&#x2044;" horiz-adv-x="122" d="M684 1661l-1198 -1774l-39 27l1198 1774z" />
<glyph unicode="&#x205f;" horiz-adv-x="482" />
<glyph unicode="&#x20ac;" horiz-adv-x="1308" d="M1164 288q46 -38 46 -102q0 -45 -27.5 -85t-74.5 -64q-61 -33 -136 -49.5t-147 -16.5q-262 0 -423.5 167t-186.5 470h-152v41h150q-2 20 -2 64q0 35 4 100h-152v41h156q25 186 109 328.5t214 219.5t285 77q174 0 283 -66q100 -63 100 -149q0 -63 -45 -101.5t-118 -38.5 q-72 0 -114 35t-42 101q0 45 30.5 84.5t82.5 56.5q-25 18 -65 29.5t-89 11.5q-139 0 -221 -154.5t-99 -433.5h426l-22 -41h-406q-2 -31 -2 -92v-72h316l-25 -41h-289q25 -600 322 -600q49 0 89 11.5t62 29.5q-51 16 -80.5 56t-29.5 85q0 66 42 101t114 35q71 0 117 -38z" />
<glyph unicode="&#x2122;" horiz-adv-x="2207" d="M909 1257q0 -66 6 -106h-47q-16 133 -58 192.5t-97 59.5h-74v-612q0 -59 10 -86t40 -36.5t95 -13.5v-41q-98 6 -256 7q-172 0 -258 -7v41q66 4 95.5 13.5t40 36t10.5 86.5v612h-74q-55 0 -97 -59.5t-59 -192.5h-47q6 37 6 106q0 86 -14 193q117 -6 397 -6q279 0 396 6 q-15 -107 -15 -193zM2087 1409q-49 -4 -69.5 -11t-28 -29.5t-7.5 -74.5v-524q0 -51 7.5 -73.5t28 -30t69.5 -11.5v-41q-84 6 -215 7q-129 0 -197 -7v41q37 4 54.5 12.5t23.5 30t6 72.5v545l-268 -711h-33l-291 715v-549q0 -51 6.5 -72.5t23.5 -30t54 -12.5v-41q-43 6 -106 7 q-82 0 -129 -7v41q49 4 69.5 11.5t27.5 30t7 73.5v524q0 51 -7 74t-27.5 30t-69.5 11v41q68 -6 203 -6q72 0 139 6l209 -514l192 508h133q123 0 195 6v-41z" />
<glyph unicode="&#x2212;" horiz-adv-x="1300" d="M1163 696h-1026v62h1026v-62z" />
<glyph unicode="&#x25fc;" horiz-adv-x="1054" d="M0 1055h1055v-1055h-1055v1055z" />
<glyph unicode="&#xfb03;" horiz-adv-x="2021" d="M1885 74.5q32 -31.5 112 -31.5v-43q-221 8 -285 8q-72 0 -285 -8v43q72 0 102 31.5t30 115.5v646q0 94 -32 137t-112 43h-244v-826q0 -84 40 -115.5t124 -31.5v-43l-53 2q-203 6 -252 6q-76 0 -297 -8v43q78 0 111 31.5t33 115.5v826h-396v-826q0 -84 29 -115.5 t102 -31.5v-43l-45 2q-178 6 -225 6q-70 0 -299 -8v43q80 0 111.5 31.5t31.5 115.5v826h-151v41h151q0 109 35 197.5t101 150.5q61 61 155 94t207 33q190 0 311 -111l43 43q74 66 187.5 102t251.5 36q190 0 313 -76q35 -20 57.5 -56t22.5 -81q0 -74 -50.5 -116t-142.5 -42 q-90 0 -141 42t-51 113q0 53 35.5 93.5t99.5 58.5q-18 12 -55 19.5t-76 7.5q-78 0 -137.5 -30t-94.5 -77q-53 -59 -69.5 -143t-16.5 -258h244q166 0 258 5t180 19v-891q0 -84 32 -115.5zM971 1391q-45 43 -109.5 69.5t-144.5 26.5q-119 0 -177.5 -69.5t-58.5 -225.5v-135 h396q0 201 94 334z" />
<glyph unicode="&#xfb04;" horiz-adv-x="2029" d="M1885 74.5q32 -31.5 112 -31.5v-43q-221 8 -285 8q-72 0 -285 -8v43q72 0 102 31.5t30 115.5v1194q0 96 -41 134q-20 23 -54 35t-69 12q-57 0 -95 -17.5t-67 -52.5q-37 -45 -49.5 -115.5t-12.5 -203.5v-119h215v-41h-215v-826q0 -84 40 -115.5t124 -31.5v-43l-53 2 q-203 6 -252 6q-76 0 -297 -8v43q78 0 111 31.5t33 115.5v826h-396v-826q0 -84 29 -115.5t102 -31.5v-43q-205 8 -270 8q-70 0 -299 -8v43q80 0 111.5 31.5t31.5 115.5v826h-151v41h151q0 109 35 197.5t101 150.5q61 61 155 94t207 33q176 0 291 -92q18 25 49 51 q68 57 156 84t182 27q39 0 129 -9q94 -8 149 -8q100 0 213 21v-1416q0 -84 32 -115.5zM952 1407q-98 80 -235 80q-119 0 -177.5 -69.5t-58.5 -225.5v-135h396q-1 227 75 350z" />
<glyph horiz-adv-x="718" d="M531.5 612q62.5 -39 62.5 -112q0 -74 -53.5 -128.5t-163.5 -127.5q-92 -59 -121 -84h276q45 0 62.5 15t34.5 54l35 -6q-29 -139 -31 -227q-25 6 -78 6h-500v41q39 33 84 66q125 96 194.5 174.5t69.5 179.5q0 51 -32.5 78.5t-91.5 27.5q-115 0 -179 -98l-30 16 q41 72 113.5 118t183.5 46q102 0 164.5 -39z" />
<glyph horiz-adv-x="757" d="M727 219q-23 -72 -29 -188q-25 6 -77 6h-54v-240h-149v240h-400v43l506 559h43v-483h29q45 0 62.5 15t33.5 54zM418 156v317l-287 -317h287z" />
<glyph d="M-524 1831q47 -47 47 -109q0 -61 -47 -107t-109 -46q-63 0 -108 45t-45 108q0 61 46 108.5t107 47.5q62 0 109 -47zM-34 1831q46 -47 46 -109q0 -63 -46 -108t-107 -45q-63 0 -109.5 45t-46.5 108q0 61 46 108.5t110 47.5q61 0 107 -47z" />
<glyph d="M-315.5 1870.5q26.5 -23.5 71.5 -70.5q102 -111 203 -194l-14 -25q-98 37 -175 57.5t-92 24.5q-47 10 -88 23.5t-71 29.5q-33 18 -51.5 46t-18.5 59q0 27 12 47q14 29 42 45t61 16q35 0 63 -16q31 -19 57.5 -42.5z" />
<glyph d="M-152 1929q33 0 61 -16.5t42 -44.5q12 -20 12 -47q0 -31 -18.5 -58.5t-50.5 -46.5q-31 -16 -72 -29.5t-88 -23.5q-14 -4 -91 -24.5t-175 -57.5l-15 25q100 84 203 194q45 47 71.5 70.5t57.5 42.5q28 16 63 16z" />
<glyph d="M-236.5 1747q111.5 -86 242.5 -141l-10 -31q-133 25 -263 61.5t-206 71.5q-63 -35 -171 -72t-216 -61l-10 31q131 55 242.5 141t176.5 178h37q66 -92 177.5 -178z" />
<glyph d="M-112.5 1864.5q65.5 -54.5 65.5 -144.5t-65.5 -145t-157.5 -55t-157 55t-65 145t65 144.5t157 54.5t157.5 -54.5zM-384 1833q-50 -43 -50 -115q0 -74 50 -114.5t114 -40.5q66 0 116 41t50 114q0 72 -50.5 115t-115.5 43q-64 0 -114 -43z" />
<glyph d="M-541.5 1871.5q52.5 -20.5 115.5 -56.5q57 -35 100 -51.5t95 -16.5q109 0 170 111l28 -11q-27 -135 -100.5 -204.5t-171.5 -69.5q-68 0 -118 19.5t-116 58.5q-59 35 -103 51t-95 16q-104 0 -170 -112l-29 10q29 135 103.5 205.5t170.5 70.5q68 0 120.5 -20.5z" />
<glyph d="M-326 -133q70 25 158 24q74 0 114 -29.5t40 -80.5q0 -82 -92.5 -124t-231.5 -42q-117 0 -190 25l10 36q74 -8 102 -8q76 0 131.5 20.5t55.5 63.5q0 53 -95 53q-49 0 -79 -14l67 219h55z" />
</font>
</defs>
</svg>
